<?xml version="1.0" encoding="UTF-8" standalone="no"?>
<svg
   xmlns:dc="http://purl.org/dc/elements/1.1/"
   xmlns:cc="http://creativecommons.org/ns#"
   xmlns:rdf="http://www.w3.org/1999/02/22-rdf-syntax-ns#"
   xmlns:svg="http://www.w3.org/2000/svg"
   xmlns="http://www.w3.org/2000/svg"
   viewBox="0 0 449.64267 117.33333"
   height="117.33333"
   width="449.64267"
   xml:space="preserve"
   id="svg2"
   version="1.1"><metadata
     id="metadata8"><rdf:RDF><cc:Work
         rdf:about=""><dc:format>image/svg+xml</dc:format><dc:type
           rdf:resource="http://purl.org/dc/dcmitype/StillImage" /></cc:Work></rdf:RDF></metadata><defs
     id="defs6"><clipPath
       id="clipPath20"
       clipPathUnits="userSpaceOnUse"><path
         id="path18"
         d="M 0,88 H 337.232 V 0 H 0 Z" /></clipPath></defs><g
     transform="matrix(1.3333333,0,0,-1.3333333,0,117.33333)"
     id="g10"><path
       id="path12"
       style="fill:#4d4c4e;fill-opacity:1;fill-rule:nonzero;stroke:none"
       d="M 0,0 H 337.232 V 88 H 0 Z" /><g
       id="g14"><g
         clip-path="url(#clipPath20)"
         id="g16"><g
           transform="translate(59.2136,31.8947)"
           id="g22"><path
             id="path24"
             style="fill:#9b3234;fill-opacity:1;fill-rule:nonzero;stroke:none"
             d="M 0,0 C 0.582,0.097 1.157,0.234 1.72,0.409 2.274,0.581 2.817,0.791 3.344,1.035 3.866,1.277 4.371,1.553 4.857,1.861 5.34,2.167 5.802,2.505 6.241,2.871 6.679,3.236 7.094,3.63 7.481,4.048 7.869,4.467 8.23,4.912 8.56,5.377 8.892,5.845 9.193,6.334 9.462,6.84 c 0.27,0.511 0.507,1.04 0.707,1.582 0.204,0.549 0.37,1.112 0.498,1.684 0.131,0.582 0.221,1.174 0.271,1.769 0.026,0.303 0.041,0.607 0.046,0.912 0.004,0.297 0.026,0.634 -0.037,0.919 C 10.84,11.679 10.419,9.707 9.387,7.937 8.789,6.911 8.012,5.993 7.1,5.232 5.196,3.643 2.761,2.768 0.243,2.767 c -1.027,0 -2.045,0.147 -3.022,0.436 -2.446,0.723 -4.441,2.463 -5.618,4.899 -1.331,2.757 -1.454,6.069 -0.328,8.862 0.824,2.045 2.278,3.811 4.093,4.973 l -0.038,0.071 c -3.067,-1.377 -5.345,-4.416 -5.946,-7.931 -0.562,-3.282 0.317,-6.836 2.413,-9.75 1.576,-2.192 3.64,-3.724 6.021,-4.509 0.127,0 0.255,0.002 0.383,0.006 C -1.196,-0.158 -0.595,-0.1 0,0" /></g><g
           transform="translate(76.4421,49.4329)"
           id="g26"><path
             id="path28"
             style="fill:#e13b39;fill-opacity:1;fill-rule:nonzero;stroke:none"
             d="m 0,0 c -0.952,4.863 -4.887,8.268 -9.576,8.268 -0.951,0 -1.902,-0.143 -2.809,-0.431 -0.881,-0.279 -1.717,-0.694 -2.474,-1.223 -0.759,-0.53 -1.438,-1.173 -2.015,-1.897 -0.419,-0.526 -0.786,-1.094 -1.092,-1.693 0.014,0.028 0.028,0.056 0.042,0.084 -0.071,-0.142 -0.141,-0.283 -0.212,-0.425 -0.016,-0.035 -0.032,-0.071 -0.048,-0.107 0.013,0.029 0.025,0.057 0.038,0.086 -0.063,-0.143 -0.126,-0.286 -0.19,-0.429 0.005,0.011 0.01,0.022 0.015,0.033 -0.017,-0.043 -0.035,-0.087 -0.053,-0.13 0.008,0.021 0.016,0.041 0.024,0.062 -0.066,-0.174 -0.132,-0.347 -0.198,-0.521 0.006,0.019 0.012,0.037 0.018,0.056 -0.103,-0.292 -0.195,-0.588 -0.276,-0.888 l 0.016,0.057 c -0.046,-0.185 -0.092,-0.371 -0.138,-0.556 0.004,0.016 0.008,0.031 0.012,0.047 -0.041,-0.191 -0.082,-0.382 -0.115,-0.574 -0.003,-0.017 -0.006,-0.033 -0.008,-0.049 -0.011,-0.064 -0.024,-0.127 -0.034,-0.191 0.007,0.004 0.54,0.764 0.852,1.097 0.307,0.328 0.645,0.625 1.01,0.888 1.881,1.461 4.243,2.332 6.809,2.332 5.036,0 9.287,-3.351 10.648,-7.945 0.025,0.358 0.039,0.719 0.039,1.083 C 0.285,-1.952 0.187,-0.96 0,0" /></g><g
           transform="translate(57.4965,49.6994)"
           id="g30"><path
             id="path32"
             style="fill:#e13b39;fill-opacity:1;fill-rule:nonzero;stroke:none"
             d="M 0,0 C 0.004,0.019 0.008,0.037 0.012,0.055 0.008,0.037 0.004,0.019 0,0" /></g><g
           transform="translate(57.6157,50.2049)"
           id="g34"><path
             id="path36"
             style="fill:#e13b39;fill-opacity:1;fill-rule:nonzero;stroke:none"
             d="M 0,0 C 0.005,0.019 0.011,0.038 0.016,0.057 0.011,0.038 0.005,0.019 0,0" /></g><g
           transform="translate(57.9171,51.1783)"
           id="g38"><path
             id="path40"
             style="fill:#e13b39;fill-opacity:1;fill-rule:nonzero;stroke:none"
             d="M 0,0 C 0.011,0.03 0.023,0.059 0.034,0.089 0.023,0.059 0.011,0.03 0,0" /></g><g
           transform="translate(57.756,50.6976)"
           id="g42"><path
             id="path44"
             style="fill:#e13b39;fill-opacity:1;fill-rule:nonzero;stroke:none"
             d="M 0,0 C 0.007,0.023 0.015,0.046 0.022,0.069 0.015,0.046 0.007,0.023 0,0" /></g><g
           transform="translate(76.6847,45.3083)"
           id="g46"><path
             id="path48"
             style="fill:#be3539;fill-opacity:1;fill-rule:nonzero;stroke:none"
             d="M 0,0 C 0.015,0.2 0.025,0.402 0.032,0.605 0.026,0.424 0.016,0.245 0.004,0.066 c -1.363,4.599 -5.619,7.955 -10.66,7.955 -2.569,0 -4.935,-0.872 -6.818,-2.336 1.127,0.811 2.51,1.289 4.004,1.289 1.343,0 2.594,-0.387 3.652,-1.052 1.644,-1.034 2.799,-2.754 3.121,-4.67 0.105,-0.624 0.148,-1.254 0.139,-1.885 -0.005,-0.304 -0.02,-0.607 -0.046,-0.909 -0.05,-0.593 -0.14,-1.183 -0.27,-1.763 -0.128,-0.57 -0.293,-1.131 -0.496,-1.678 -0.2,-0.541 -0.436,-1.068 -0.706,-1.577 -0.267,-0.505 -0.567,-0.993 -0.898,-1.459 -0.33,-0.464 -0.689,-0.906 -1.076,-1.324 -0.386,-0.417 -0.799,-0.809 -1.235,-1.173 -0.438,-0.365 -0.899,-0.702 -1.38,-1.007 -0.484,-0.307 -0.988,-0.582 -1.508,-0.824 -0.525,-0.243 -1.066,-0.452 -1.619,-0.623 -0.561,-0.175 -1.135,-0.311 -1.714,-0.408 -0.593,-0.099 -1.193,-0.158 -1.793,-0.176 -0.132,-0.003 -0.263,-0.005 -0.412,-0.005 0.553,-0.167 1.119,-0.303 1.696,-0.408 0.769,-0.138 1.558,-0.221 2.362,-0.243 0.096,-0.002 0.191,-0.004 0.288,-0.004 8.131,0 14.792,6.292 15.373,14.284 C 0.002,0.05 0.002,0.025 0,0" /></g><g
           transform="translate(63.0178,49.2808)"
           id="g50"><path
             id="path52"
             style="fill:#e13b39;fill-opacity:1;fill-rule:nonzero;stroke:none"
             d="m 0,0 c -2.366,-0.072 -4.43,-1.341 -5.608,-3.223 -0.012,-0.02 -0.019,-0.044 -0.019,-0.068 v -22.405 c 0,-0.071 0.058,-0.128 0.129,-0.126 2.365,0.072 4.429,1.341 5.607,3.223 0.013,0.02 0.02,0.044 0.02,0.068 V -0.126 C 0.129,-0.055 0.07,0.002 0,0" /></g><g
           transform="translate(96.2637,38.9964)"
           id="g54"><path
             id="path56"
             style="fill:#ffffff;fill-opacity:1;fill-rule:nonzero;stroke:none"
             d="m 0,0 c 3.519,0 4.994,2.486 4.994,5.196 0,2.608 -1.496,5.317 -4.953,5.378 -3.275,0 -5.034,-2.285 -5.034,-5.378 C -4.953,2.688 -3.497,0 0,0 M 7.238,5.236 C 7.238,1.415 4.913,-2.083 0,-2.083 c -4.913,0 -7.237,3.579 -7.237,7.299 0,4.306 3.011,7.42 7.278,7.42 4.832,-0.02 7.197,-3.578 7.197,-7.4" /></g><g
           transform="translate(108.4405,39.3196)"
           id="g58"><path
             id="path60"
             style="fill:#ffffff;fill-opacity:1;fill-rule:nonzero;stroke:none"
             d="m 0,0 h 4.246 c 1.253,0 2.992,0.404 2.992,1.961 0,1.517 -1.678,2.204 -2.972,2.204 H 0 Z m 0,6.187 h 4.266 c 1.698,0 2.547,0.667 2.547,1.779 0,0.991 -0.869,2.042 -2.567,2.042 H 0 Z m 4.246,5.863 c 2.689,0 4.812,-1.234 4.812,-4.043 C 9.058,6.813 8.431,5.742 7.097,5.196 8.795,4.69 9.502,3.013 9.502,1.941 c 0,-3.093 -2.466,-4.044 -5.256,-4.044 h -6.49 V 12.05 Z" /></g><g
           transform="translate(131.9258,51.3694)"
           id="g62"><path
             id="path64"
             style="fill:#ffffff;fill-opacity:1;fill-rule:nonzero;stroke:none"
             d="m 0,0 v -8.289 c 0,-3.619 -2.346,-6.126 -6.065,-6.126 -3.518,0 -6.045,2.184 -6.045,6.005 h 2.223 c 0,-2.487 1.355,-3.882 3.822,-3.882 2.466,0 3.8,1.657 3.8,4.003 l 0,8.289 z" /></g><g
           transform="translate(145.7784,37.2171)"
           id="g66"><path
             id="path68"
             style="fill:#ffffff;fill-opacity:1;fill-rule:nonzero;stroke:none"
             d="M 0,0 H -10.452 V 14.152 H -0.061 V 11.949 H -8.188 V 8.128 h 7.804 V 6.025 H -8.188 V 2.224 H 0 Z" /></g><g
           transform="translate(160.6836,39.0364)"
           id="g70"><path
             id="path72"
             style="fill:#ffffff;fill-opacity:1;fill-rule:nonzero;stroke:none"
             d="m 0,0 c -1.456,-1.436 -3.336,-2.103 -5.317,-2.103 -5.135,0 -7.441,3.539 -7.46,7.259 -0.021,3.72 2.405,7.42 7.46,7.42 1.9,0 3.74,-0.708 5.175,-2.143 L -1.658,8.977 c -1.011,0.991 -2.345,1.456 -3.659,1.456 -3.599,0 -5.237,-2.649 -5.216,-5.257 0.019,-2.588 1.556,-5.155 5.216,-5.155 1.314,0 2.769,0.545 3.76,1.536 z" /></g><g
           transform="translate(166.5964,49.3275)"
           id="g74"><path
             id="path76"
             style="fill:#ffffff;fill-opacity:1;fill-rule:nonzero;stroke:none"
             d="M 0,0 H -4.65 V 2.042 H 6.914 V 0 H 2.284 V -12.11 H 0 Z" /></g><g
           transform="translate(182.3718,43.6468)"
           id="g78"><path
             id="path80"
             style="fill:#ffffff;fill-opacity:1;fill-rule:nonzero;stroke:none"
             d="m 0,0 h 4.286 c 3.74,0 3.72,5.66 0,5.66 H 0 Z M 0,-2.083 V -6.43 H -2.265 V 7.723 c 2.163,0 4.387,0.02 6.551,0.02 6.753,0 6.773,-9.785 0,-9.826 z" /></g><g
           transform="translate(199.0544,48.9837)"
           id="g82"><path
             id="path84"
             style="fill:#ffffff;fill-opacity:1;fill-rule:nonzero;stroke:none"
             d="m 0,0 -2.992,-6.732 h 5.984 z m 3.821,-8.795 h -7.663 l -1.334,-2.972 H -7.582 L -1.233,2.386 H 1.233 L 7.582,-11.767 H 5.176 Z" /></g><g
           transform="translate(210.9753,49.3069)"
           id="g86"><path
             id="path88"
             style="fill:#ffffff;fill-opacity:1;fill-rule:nonzero;stroke:none"
             d="m 0,0 v -5.135 h 4.306 c 1.881,0 2.71,1.193 2.71,2.528 C 7.016,-1.334 6.187,0 4.326,0 Z M 9.947,-12.09 H 7.298 L 2.992,-7.197 H 0 V -12.09 H -2.265 V 2.083 c 2.204,0 4.387,-0.02 6.591,-0.02 3.276,0 4.994,-2.245 4.994,-4.63 0,-2.022 -1.051,-4.003 -3.841,-4.408 l 4.225,-4.711 z" /></g><g
           transform="translate(226.6892,49.3275)"
           id="g90"><path
             id="path92"
             style="fill:#ffffff;fill-opacity:1;fill-rule:nonzero;stroke:none"
             d="M 0,0 H -4.65 V 2.042 H 6.914 V 0 H 2.284 V -12.11 H 0 Z" /></g><g
           transform="translate(245.6765,41.3011)"
           id="g94"><path
             id="path96"
             style="fill:#ffffff;fill-opacity:1;fill-rule:nonzero;stroke:none"
             d="M 0,0 V 10.068 H 2.265 V -4.084 H 0.546 L -7.48,5.903 v -9.987 h -2.285 v 14.152 h 1.739 z" /></g><g
           transform="translate(261.9568,37.2171)"
           id="g98"><path
             id="path100"
             style="fill:#ffffff;fill-opacity:1;fill-rule:nonzero;stroke:none"
             d="M 0,0 H -10.452 V 14.152 H -0.061 V 11.949 H -8.188 V 8.128 h 7.804 V 6.025 H -8.188 V 2.224 H 0 Z" /></g><g
           transform="translate(267.1374,49.3069)"
           id="g102"><path
             id="path104"
             style="fill:#ffffff;fill-opacity:1;fill-rule:nonzero;stroke:none"
             d="m 0,0 v -5.135 h 4.306 c 1.881,0 2.71,1.193 2.71,2.528 C 7.016,-1.334 6.187,0 4.326,0 Z M 9.947,-12.09 H 7.298 L 2.992,-7.197 H 0 V -12.09 H -2.265 V 2.083 c 2.204,0 4.387,-0.02 6.591,-0.02 3.276,0 4.994,-2.245 4.994,-4.63 0,-2.022 -1.051,-4.003 -3.841,-4.408 l 4.225,-4.711 z" /></g><g
           transform="translate(287.905,48.2357)"
           id="g106"><path
             id="path108"
             style="fill:#ffffff;fill-opacity:1;fill-rule:nonzero;stroke:none"
             d="m 0,0 c -0.667,0.971 -2.022,1.557 -3.498,1.577 -1.9,0 -3.275,-0.788 -3.275,-2.142 0,-1.375 1.577,-1.76 3.437,-2.023 2.911,-0.404 5.681,-1.213 5.681,-4.387 -0.02,-3.174 -2.911,-4.367 -5.864,-4.367 -2.709,0 -4.791,0.829 -6.085,3.215 l 1.699,1.132 c 1.01,-1.719 2.769,-2.325 4.407,-2.325 1.698,0 3.579,0.566 3.579,2.345 0,1.537 -1.638,2.062 -3.619,2.325 -2.811,0.384 -5.48,1.091 -5.48,4.125 -0.02,2.931 2.912,4.063 5.459,4.063 2.042,0 4.084,-0.485 5.278,-2.386 z" /></g></g></g></g></svg>