<?xml version="1.0" standalone="no"?>
<!DOCTYPE svg PUBLIC "-//W3C//DTD SVG 1.1//EN" "http://www.w3.org/Graphics/SVG/1.1/DTD/svg11.dtd" >
<svg xmlns="http://www.w3.org/2000/svg">
<metadata></metadata>
<defs>
<font id="franklin_gothic_fsbook" horiz-adv-x="1202" >
<font-face units-per-em="2048" ascent="1694" descent="-354" />
<missing-glyph horiz-adv-x="512" />
<glyph unicode="&#xfb01;" horiz-adv-x="985" d="M184 0v887h-178v123h178q1 99 7 140.5t24 82.5q35 78 102.5 119t159.5 41q33 0 98 -11v-125q-48 13 -83 13q-47 0 -82 -22t-52 -62q-11 -26 -13.5 -56t-2.5 -120h233v-123h-233v-887h-158zM666 1192v174h170v-174h-170zM672 0v1010h157v-1010h-157z" />
<glyph unicode="&#xfb02;" horiz-adv-x="985" d="M184 0v887h-178v123h178q2 103 7.5 143.5t23.5 79.5q72 160 268 160q38 0 92 -11v-125q-56 11 -81 11q-54 0 -92 -26.5t-50 -72.5q-7 -30 -8.5 -52t-1.5 -107h233v-123h-233v-887h-158zM672 0v1366h157v-1366h-157z" />
<glyph horiz-adv-x="0" />
<glyph horiz-adv-x="682" />
<glyph unicode=" "  horiz-adv-x="512" />
<glyph unicode="&#x09;" horiz-adv-x="512" />
<glyph unicode="&#xa0;" horiz-adv-x="512" />
<glyph unicode="!" horiz-adv-x="550" d="M231 340l-73 1026h235l-78 -1026h-84zM172 0v211h209v-211h-209z" />
<glyph unicode="&#x22;" horiz-adv-x="647" d="M412 838l-29 528h160l-31 -528h-100zM137 838l-31 528h160l-30 -528h-99z" />
<glyph unicode="#" d="M205 0l78 434h-220l23 123h217l51 285h-219l23 123h219l69 401h132l-72 -401h289l71 401h129l-71 -401h213l-23 -123h-209l-51 -285h209l-21 -123h-211l-75 -434h-131l77 434h-290l-78 -434h-129zM434 557h289l49 285h-287z" />
<glyph unicode="$" d="M96 356l135 54q37 -103 113 -163t180 -67v465q-96 25 -141.5 41.5t-89.5 42.5q-66 38 -103.5 108t-37.5 154q0 94 46.5 172t129.5 121q77 39 196 57v166h121v-166q151 -13 245.5 -77.5t141.5 -184.5l-135 -45q-26 79 -91.5 124.5t-160.5 51.5v-428q100 -23 146 -37 t92 -38q79 -41 127.5 -123t48.5 -174q0 -94 -51 -179t-134 -129q-46 -24 -93.5 -36t-135.5 -23v-193h-121v193q-337 37 -428 313zM524 801v409q-109 -12 -168 -63.5t-59 -136.5t55 -135.5t172 -73.5zM645 180q123 7 191.5 65t68.5 152q0 51 -24.5 95.5t-67.5 70.5 q-33 21 -67 31.5t-101 21.5v-436z" />
<glyph unicode="%" horiz-adv-x="1474" d="M358 670q-124 0 -203 99.5t-79 256.5q0 159 76.5 256.5t201.5 97.5q127 0 206 -99t79 -259q0 -153 -79.5 -252.5t-201.5 -99.5zM262 0l828 1366h124l-825 -1366h-127zM360 750q78 0 124 70.5t46 191.5q0 137 -46.5 214t-129.5 77q-82 0 -127 -72t-45 -201 q0 -132 46.5 -206t131.5 -74zM840 342q0 159 76.5 256.5t201.5 97.5q126 0 204.5 -99t78.5 -259q0 -154 -79 -253t-202 -99t-201.5 99.5t-78.5 256.5zM944 346q0 -132 46.5 -206t131.5 -74q80 0 126 69.5t46 192.5q0 137 -46.5 213.5t-131.5 76.5q-82 0 -127 -71.5 t-45 -200.5z" />
<glyph unicode="&#x26;" horiz-adv-x="1366" d="M1290 143v-143q-93 -14 -149 -14q-66 0 -105 21t-123 102q-97 -76 -175.5 -106t-184.5 -30q-200 0 -332.5 115.5t-132.5 290.5q0 143 92 251.5t262 166.5q-131 192 -131 309q0 125 87 206t220 81q140 0 228 -81t88 -210q0 -115 -65 -195.5t-222 -158.5l287 -437 q73 94 117 197t69 240l146 -31q-20 -122 -95.5 -275.5t-156.5 -236.5q39 -41 71 -55.5t80 -14.5q26 0 125 8zM578 846q83 47 116 69q111 73 111 177q0 74 -52 124t-128 50q-72 0 -120 -44t-48 -110q0 -47 22 -95.5t99 -170.5zM836 211l-328 483q-140 -63 -195 -130.5 t-55 -176.5q0 -131 83.5 -208t225.5 -77q84 0 143 24t126 85z" />
<glyph unicode="'" horiz-adv-x="370" d="M137 838l-31 528h160l-30 -528h-99z" />
<glyph unicode="(" horiz-adv-x="600" d="M506 -342h-105q-295 383 -295 854q0 451 293 854h105q-252 -390 -252 -846q0 -231 61.5 -440t192.5 -422z" />
<glyph unicode=")" horiz-adv-x="600" d="M96 -342q252 390 252 846q0 232 -62 441.5t-192 420.5h105q295 -386 295 -854q0 -451 -293 -854h-105z" />
<glyph unicode="*" d="M416 555l-125 88l256 281l-387 77l47 144l354 -156l-39 377h156l-39 -377l354 156l47 -144l-387 -77l256 -281l-125 -88l-184 324z" />
<glyph unicode="+" d="M526 195v419h-403v140h403v420h150v-420h403v-140h-403v-419h-150z" />
<glyph unicode="," horiz-adv-x="512" d="M147 0v227h220v-204l-150 -279h-86l119 256h-103z" />
<glyph unicode="-" horiz-adv-x="512" d="M31 451v122h452v-122h-452z" />
<glyph unicode="." horiz-adv-x="512" d="M145 0v223h224v-223h-224z" />
<glyph unicode="/" horiz-adv-x="929" d="M37 -342h-133l823 1708h135z" />
<glyph unicode="0" d="M602 -27q-151 0 -269 90t-183.5 252.5t-65.5 370.5q0 258 100 444q136 263 412 263q282 0 418 -260q104 -203 104 -457q0 -114 -29.5 -235t-80.5 -216q-65 -120 -171 -186t-235 -66zM604 106q199 0 283 216q55 143 55 331q0 241 -70 406q-41 98 -111.5 149.5t-164.5 51.5 q-161 0 -249.5 -150t-88.5 -420q0 -275 91.5 -429.5t254.5 -154.5z" />
<glyph unicode="1" d="M188 0v127h410v1055q-180 -186 -375 -295v172q261 136 416 334h123v-1266h383v-127h-957z" />
<glyph unicode="2" d="M106 0v141q217 162 274.5 207t176.5 144q200 166 272 268t72 219q0 118 -88 198t-219 80q-78 0 -147 -34.5t-115 -96.5q-31 -40 -45.5 -80t-20.5 -102l-160 49q23 92 49 145t72 103q66 74 161.5 113t207.5 39q204 0 339.5 -117.5t135.5 -294.5q0 -143 -84 -266t-305 -301 q-193 -159 -360 -273h753v-141h-969z" />
<glyph unicode="3" d="M266 1036l-155 43q34 79 67 124.5t86 86.5q136 103 334 103q193 0 319.5 -103t126.5 -260q0 -118 -69.5 -200.5t-192.5 -110.5q148 -28 232 -118t84 -222q0 -181 -143.5 -293.5t-374.5 -112.5q-212 0 -361 113q-60 46 -93.5 92.5t-64.5 126.5l160 53q22 -63 43 -99.5 t53 -65.5q93 -80 269 -80q171 0 256 82q78 75 78 180q0 124 -97.5 195t-269.5 71h-156v137h156q152 0 234.5 63t82.5 177q0 106 -79 172.5t-205 66.5q-71 0 -135.5 -25t-108.5 -69q-45 -45 -76 -127z" />
<glyph unicode="4" d="M63 326v114l625 955h215v-934h221v-135h-221v-326h-166v326h-674zM242 461h495v645q0 83 4 151q-64 -116 -73 -129z" />
<glyph unicode="5" d="M315 1219l-28 -443q89 83 163 116.5t171 33.5q199 0 335 -136.5t136 -336.5q0 -207 -148.5 -343.5t-372.5 -136.5q-219 0 -368 140q-44 41 -68.5 80t-46.5 102l145 51q51 -122 133 -179.5t205 -57.5q160 0 257.5 95.5t97.5 250.5q0 145 -90.5 237t-231.5 92 q-100 0 -177.5 -45t-143.5 -141l-136 29l46 739h808l-14 -147h-672z" />
<glyph unicode="6" d="M1098 1085l-154 -41q-44 107 -113.5 157t-175.5 50q-114 0 -198 -60t-131 -175q-61 -142 -64 -398q30 65 56.5 101t68.5 72q122 104 289 104q185 0 313.5 -131t128.5 -320q0 -200 -140 -335.5t-345 -135.5q-243 0 -386 183t-143 495q0 168 43.5 317t120.5 249 q136 176 389 176q328 0 441 -308zM301 426q0 -132 96 -223.5t234 -91.5t234 92t96 227q0 138 -91 233t-223 95q-140 0 -243 -98.5t-103 -233.5z" />
<glyph unicode="7" d="M399 0v39q0 145 42 325t114 343q58 130 149 272t179 238h-742l19 149h901v-102q-157 -187 -279 -420q-95 -180 -151 -395.5t-56 -403.5v-45h-176z" />
<glyph unicode="8" d="M74 354q0 230 323 355q-258 113 -258 329q0 158 131 256.5t340 98.5q207 0 332 -95.5t125 -253.5q0 -218 -264 -311q128 -61 188 -104q63 -46 99 -118.5t36 -152.5q0 -172 -144.5 -278.5t-377.5 -106.5t-381.5 107t-148.5 274zM604 795q167 43 240.5 103.5t73.5 154.5 q0 97 -81.5 154t-220.5 57q-137 0 -220 -58t-83 -153q0 -87 78.5 -156.5t212.5 -101.5zM240 346q0 -110 98.5 -177t261.5 -67q162 0 260 65t98 171q0 101 -89.5 173t-282.5 126q-346 -82 -346 -291z" />
<glyph unicode="9" d="M117 250l137 49q84 -190 285 -190q189 0 291 156t106 454q-75 -128 -172 -187t-232 -59q-192 0 -320 129.5t-128 321.5q0 201 137.5 335t341.5 134q107 0 202.5 -37t158.5 -103q82 -85 127 -226.5t45 -311.5q0 -312 -135 -525q-65 -103 -177 -161t-245 -58 q-173 0 -295 92q-45 36 -72 76t-55 111zM571 610q135 0 232.5 96.5t97.5 229.5q0 136 -92.5 225.5t-233.5 89.5q-146 0 -235.5 -89.5t-89.5 -235.5q0 -137 91 -226.5t230 -89.5z" />
<glyph unicode=":" horiz-adv-x="512" d="M145 786v224h224v-224h-224zM145 0v225h224v-225h-224z" />
<glyph unicode=";" horiz-adv-x="512" d="M145 788v222h220v-222h-220zM145 0v227h220v-204l-152 -279h-82l117 256h-103z" />
<glyph unicode="&#x3c;" d="M137 610v133l887 416v-151l-723 -332l723 -330v-153z" />
<glyph unicode="=" d="M123 793v137h956v-137h-956zM123 469v137h956v-137h-956z" />
<glyph unicode="&#x3e;" d="M178 193v153l723 330l-723 332v151l887 -416v-133z" />
<glyph unicode="?" horiz-adv-x="1034" d="M393 340v33v104q0 130 68 195q26 26 92 61l80 43q71 38 108 99.5t37 134.5q0 106 -78 174.5t-198 68.5q-69 0 -132.5 -27.5t-101.5 -74.5q-27 -36 -44 -77.5t-34 -115.5l-149 31q19 99 46 157.5t79 113.5q124 133 340 133q200 0 324 -108t124 -281q0 -114 -61.5 -199.5 t-194.5 -157.5q-43 -23 -66.5 -36.5t-44 -30.5t-28.5 -27.5t-14.5 -31.5t-7 -38.5t-0.5 -52.5v-41v-49h-144zM369 0v197h202v-197h-202z" />
<glyph unicode="@" horiz-adv-x="1525" d="M1270 211l43 -121q-128 -62 -243 -89.5t-247 -27.5q-229 0 -397 97q-160 92 -252 257t-92 357q0 196 94 359t257.5 256.5t361.5 93.5q136 0 256.5 -47t206.5 -128.5t136 -194.5t50 -241q0 -132 -47 -246t-126.5 -181.5t-170.5 -67.5q-118 0 -162 121q-56 -69 -105 -97 t-118 -28q-135 0 -225.5 106t-90.5 266q0 172 102 288t251 116q72 0 122 -27t93 -90l12 100h133l-55 -467q-6 -50 -6 -90q0 -69 67 -69q78 0 140.5 109t62.5 245q0 218 -148.5 359t-377.5 141q-161 0 -294 -77t-209.5 -212t-76.5 -297q0 -160 75.5 -296t207.5 -212 q131 -76 323 -76q112 0 207 21.5t199 71.5zM723 416q86 0 151.5 88t65.5 205q0 95 -49 156t-125 61q-89 0 -150 -79t-61 -196q0 -102 48 -168.5t120 -66.5z" />
<glyph unicode="A" horiz-adv-x="1128" d="M6 0l443 1366h196l445 -1366h-177l-137 399h-506l-120 -399h-144zM319 528h420l-209 656z" />
<glyph unicode="B" horiz-adv-x="1239" d="M170 0v1366h541q87 0 145 -14.5t111 -48.5q70 -47 107.5 -117t37.5 -154q0 -66 -26 -128t-70 -103q-27 -25 -57.5 -40.5t-88.5 -35.5q70 -20 105 -38t69 -50q109 -109 109 -258q0 -103 -44.5 -185t-127.5 -133q-102 -61 -272 -61h-539zM336 780h297q85 0 136.5 11.5 t88.5 39.5q38 29 61 79t23 104q0 101 -69.5 157t-196.5 56h-340v-447zM336 150h366q131 0 205 62.5t74 174.5q0 111 -72 186q-39 42 -92 60t-139 18h-342v-501z" />
<glyph unicode="C" horiz-adv-x="1185" d="M989 459l156 -35q-28 -107 -57 -169.5t-80 -121.5q-135 -160 -367 -160q-235 0 -375 166q-88 104 -134 247.5t-46 309.5q0 317 154.5 507t412.5 190q384 0 492 -439l-160 -30q-51 171 -129.5 247t-204.5 76q-178 0 -278.5 -151t-100.5 -418q0 -255 101.5 -407t271.5 -152 q74 0 142.5 34t109.5 91q31 43 50 87.5t42 127.5z" />
<glyph unicode="D" horiz-adv-x="1325" d="M170 0v1366h457q128 0 225.5 -36t179.5 -113q100 -95 153.5 -231.5t53.5 -297.5q0 -195 -71.5 -352.5t-199 -246.5t-284.5 -89h-514zM340 145h278q92 0 170.5 29.5t129.5 83.5q69 72 108 187t39 243q0 257 -143 416q-110 119 -306 119h-276v-1078z" />
<glyph unicode="E" horiz-adv-x="1122" d="M170 0v1366h864v-149h-694v-437h551v-139h-551v-491h713v-150h-883z" />
<glyph unicode="F" horiz-adv-x="1040" d="M170 0v1366h836v-149h-666v-433h553v-137h-553v-647h-170z" />
<glyph unicode="G" horiz-adv-x="1325" d="M1077 -18l-45 172q-72 -96 -163 -139.5t-220 -43.5q-240 0 -389 174q-174 201 -174 523q0 215 74 379.5t208.5 255t309.5 90.5q233 0 373 -158q43 -50 68 -100.5t50 -137.5l-161 -39q-19 71 -38 109.5t-52 73.5q-98 106 -256 106q-97 0 -176.5 -46.5t-123.5 -129.5 q-90 -164 -90 -397q0 -230 88 -387q47 -82 131 -129t181 -47q152 0 245 99.5t93 260.5q0 45 -2 74h-338v143h514v-706h-107z" />
<glyph unicode="H" horiz-adv-x="1316" d="M170 0v1366h170v-565h635v565h170v-1366h-170v651h-635v-651h-170z" />
<glyph unicode="I" horiz-adv-x="512" d="M170 0v1366h170v-1366h-170z" />
<glyph unicode="J" horiz-adv-x="763" d="M0 0v139q105 -18 182 -18q153 0 213 78q28 35 35.5 75t7.5 144v948h170v-948q0 -227 -100 -336t-311 -109q-84 0 -197 27z" />
<glyph unicode="K" horiz-adv-x="1286" d="M170 0v1366h170v-793l618 793h185l-371 -479l477 -887h-188l-408 754l-313 -389v-365h-170z" />
<glyph unicode="L" horiz-adv-x="1003" d="M170 0v1366h174v-1216h631v-150h-805z" />
<glyph unicode="M" horiz-adv-x="1658" d="M170 0v1366h254l410 -1092l403 1092h250v-1366h-166v1192l-442 -1192h-117l-447 1192v-1192h-145z" />
<glyph unicode="N" horiz-adv-x="1345" d="M170 0v1366h213l661 -1114l-2 94q-2 51 -2 100v920h136v-1366h-166l-707 1190l2 -90q2 -45 2 -86v-1014h-137z" />
<glyph unicode="O" horiz-adv-x="1292" d="M256 150q-170 207 -170 530q0 208 70.5 370.5t198.5 252.5t292 90q252 0 405.5 -194.5t153.5 -514.5q0 -155 -47.5 -296t-134.5 -243q-144 -172 -381 -172q-245 0 -387 177zM647 113q172 0 276.5 157.5t104.5 415.5q0 266 -101.5 416.5t-281.5 150.5q-173 0 -277 -157 t-104 -418q0 -255 105 -410t278 -155z" />
<glyph unicode="P" horiz-adv-x="1144" d="M170 0v1366h483q184 0 293 -86q68 -53 109 -141t41 -181q0 -177 -119 -290t-305 -113h-332v-555h-170zM340 696h313q122 0 195.5 72t73.5 190q0 117 -71 191t-185 74h-326v-527z" />
<glyph unicode="Q" horiz-adv-x="1304" d="M1133 -168v-137q-84 -23 -148 -23q-70 0 -134 19.5t-103 52.5q-43 37 -64.5 90t-28.5 143q-112 7 -181.5 30.5t-137.5 74.5q-123 92 -186.5 244t-63.5 352q0 321 156 518t411 197t411.5 -194t156.5 -511q0 -340 -189 -547q-53 -56 -103 -86.5t-134 -54.5v-33 q0 -55 30 -92q23 -31 58 -43t98 -12q79 0 152 12zM641 121q89 0 166.5 38t124.5 105q49 72 76.5 180.5t27.5 233.5q0 271 -99 418t-282 147q-92 0 -166 -36.5t-118 -102.5q-48 -72 -75.5 -188t-27.5 -244q0 -258 99 -404.5t274 -146.5z" />
<glyph unicode="R" horiz-adv-x="1255" d="M170 0v1366h537q192 0 312 -106.5t120 -276.5q0 -67 -26 -136t-69 -116q-30 -35 -64 -55.5t-95 -42.5l268 -633h-180l-252 592h-391v-592h-160zM330 731h356q140 0 213 76q70 73 70 180q0 106 -70.5 168t-191.5 62h-377v-486z" />
<glyph unicode="S" horiz-adv-x="1165" d="M477 823l254 -61q352 -86 352 -377q0 -188 -138 -300t-370 -112q-250 0 -397 138q-54 50 -87.5 103.5t-70.5 150.5l154 32q93 -278 404 -278q152 0 239.5 66.5t87.5 183.5q0 76 -55.5 133t-153.5 82l-272 69q-86 22 -135 44.5t-90 58.5q-111 105 -111 264q0 167 127 270 t334 103q183 0 306.5 -85t180.5 -251l-153 -43q-13 53 -32 85t-54 62q-106 92 -254 92q-125 0 -207 -63t-82 -160q0 -82 51.5 -130t171.5 -77z" />
<glyph unicode="T" horiz-adv-x="993" d="M412 0v1217h-392v149h953v-149h-391v-1217h-170z" />
<glyph unicode="U" horiz-adv-x="1241" d="M1090 1366v-893q0 -117 -21.5 -195t-71.5 -143q-122 -162 -383 -162q-270 0 -383 162q-43 63 -62 142t-19 196v893h169v-893q0 -177 56 -250q35 -46 104.5 -73t149.5 -27q79 0 145.5 26.5t106.5 73.5q36 42 51.5 100t15.5 150v893h142z" />
<glyph unicode="V" horiz-adv-x="1099" d="M467 0l-461 1366h178l381 -1126l377 1126h150l-461 -1366h-164z" />
<glyph unicode="W" horiz-adv-x="1673" d="M385 0l-346 1366h176l274 -1106l291 1106h138l313 -1106l254 1106h149l-327 -1366h-172l-297 1059l-279 -1059h-174z" />
<glyph unicode="X" horiz-adv-x="1064" d="M4 0l438 707l-391 659h191l301 -506l305 506h156l-383 -625l438 -741h-193l-346 582l-356 -582h-160z" />
<glyph unicode="Y" horiz-adv-x="1044" d="M436 0v575l-456 791h200l363 -629l364 629h156l-457 -791v-575h-170z" />
<glyph unicode="Z" horiz-adv-x="1067" d="M55 0v145l742 1072h-707v139h905v-113l-749 -1098h772v-145h-963z" />
<glyph unicode="[" horiz-adv-x="600" d="M162 -342v1708h354v-102h-217v-1497h217v-109h-354z" />
<glyph unicode="\" horiz-adv-x="929" d="M891 -342l-823 1708h133l825 -1708h-135z" />
<glyph unicode="]" horiz-adv-x="600" d="M84 -240h217v1497h-217v109h354v-1708h-354v102z" />
<glyph unicode="^" horiz-adv-x="1024" d="M51 745l361 625h202l361 -625h-166l-297 504l-295 -504h-166z" />
<glyph unicode="_" horiz-adv-x="1024" d="M0 -135h1024v-137h-1024v137z" />
<glyph unicode="`" horiz-adv-x="1024" d="M604 1167l-416 189l62 121l395 -230z" />
<glyph unicode="a" horiz-adv-x="1083" d="M948 0h-155q-13 63 -19 182q-61 -112 -143 -160.5t-211 -48.5q-156 0 -254 85.5t-98 220.5q0 86 46 161t124 115q139 74 405 74q68 0 131 -4v32q0 128 -39 179q-61 82 -225 82q-229 0 -270 -185l-146 25q10 57 27 91t49 66q120 123 375 123q226 0 313 -118 q37 -51 52.5 -118t15.5 -177v-428q0 -113 22 -197zM236 274q0 -82 58.5 -131t156.5 -49q137 0 231 100t94 246q0 39 -2 66q-106 4 -133 4q-197 0 -301 -60.5t-104 -175.5z" />
<glyph unicode="b" horiz-adv-x="1099" d="M158 0v1366h157v-524q62 104 130.5 149t166.5 45q183 0 296.5 -145.5t113.5 -380.5t-116.5 -386t-299.5 -151q-102 0 -178.5 47.5t-136.5 147.5l-58 -168h-75zM315 623v-228q7 -70 20.5 -109.5t41.5 -78.5q37 -47 95 -76t118 -29q122 0 194 105t72 282q0 94 -22 180.5 t-60 143.5q-29 43 -79 68.5t-105 25.5q-110 0 -195 -94q-35 -41 -52.5 -82t-27.5 -108z" />
<glyph unicode="c" horiz-adv-x="954" d="M754 354l141 -24q-19 -92 -44.5 -145.5t-74.5 -102.5q-106 -109 -272 -109q-194 0 -310 145t-116 386q0 239 119.5 385.5t314.5 146.5q155 0 253.5 -90t129.5 -262l-141 -27q-15 98 -54 154q-71 96 -190 96q-123 0 -195.5 -107.5t-72.5 -291.5q0 -190 70.5 -298 t195.5 -108q193 0 246 252z" />
<glyph unicode="d" horiz-adv-x="1101" d="M801 0v172q-63 -108 -137.5 -154.5t-182.5 -46.5q-178 0 -291.5 148t-113.5 377q0 239 115 390.5t298 151.5q95 0 162 -37.5t135 -128.5v494h158v-1366h-143zM786 410v211q0 67 -14 108t-45 80q-35 47 -94 75.5t-119 28.5q-122 0 -194 -108t-72 -289q0 -197 68.5 -306.5 t191.5 -109.5q115 0 205 103q39 47 56 91.5t17 115.5z" />
<glyph unicode="e" horiz-adv-x="1064" d="M987 492h-735q0 -89 9 -138.5t32 -97.5q34 -69 105 -111.5t153 -42.5q62 0 117.5 24.5t93.5 68.5q28 31 61 106l146 -31q-50 -140 -162.5 -218.5t-265.5 -78.5q-207 0 -335 145.5t-128 381.5q0 237 131 386.5t338 149.5q127 0 227 -61t154 -172q31 -66 44.5 -136.5 t14.5 -174.5zM260 608h555q-1 70 -13.5 113.5t-43.5 87.5q-75 106 -209 106t-217 -106q-33 -41 -48.5 -84.5t-23.5 -116.5z" />
<glyph unicode="f" horiz-adv-x="614" d="M184 0v887h-178v123h178q3 94 9.5 137.5t23.5 87.5q26 74 98 117t170 43q45 0 150 -15v-127q-64 15 -94 15q-155 0 -193 -97q-12 -33 -15 -56.5t-3 -104.5h245v-123h-245v-887h-146z" />
<glyph unicode="g" horiz-adv-x="1005" d="M981 1167v-125q-100 2 -141.5 -22.5t-51.5 -91.5q97 -114 97 -244q0 -147 -109 -241.5t-278 -94.5q-40 0 -70 6q-61 11 -66 11q-40 0 -73 -30t-33 -67q0 -48 51 -73q27 -12 76 -17.5t186 -9.5q156 -4 224.5 -16t115.5 -43q111 -72 111 -201q0 -143 -128 -216t-380 -73 q-226 0 -343.5 68t-117.5 198q0 73 37 121.5t117 79.5q-55 38 -77 74.5t-22 89.5q0 61 31.5 101t108.5 77q-71 62 -101 123.5t-30 144.5q0 148 109.5 246t275.5 98q110 0 207 -47q14 85 63 131q26 26 62.5 35.5t107.5 9.5q21 0 41 -2zM502 469q98 0 161.5 61t63.5 156 q0 99 -63.5 164t-159.5 65q-100 0 -164 -63.5t-64 -161.5q0 -100 62.5 -160.5t163.5 -60.5zM203 -98q0 -52 39 -86q42 -34 118 -55t164 -21q127 0 240 37q106 35 106 125q0 67 -69 96q-37 17 -74 21.5t-170 7.5q-159 3 -244 14q-62 -31 -86 -61.5t-24 -77.5z" />
<glyph unicode="h" horiz-adv-x="1105" d="M158 0v1366h157v-543q61 115 134 165t176 50q84 0 152.5 -34.5t111.5 -98.5q38 -55 49.5 -110.5t11.5 -182.5v-612h-157v612q0 129 -21 183q-20 51 -68.5 81.5t-107.5 30.5q-53 0 -106 -26t-91 -70q-84 -97 -84 -266v-545h-157z" />
<glyph unicode="i" horiz-adv-x="468" d="M150 1192v174h169v-174h-169zM156 0v1010h157v-1010h-157z" />
<glyph unicode="j" horiz-adv-x="468" d="M143 1192v174h179v-174h-179zM156 -33v1055h157v-1055q0 -317 -295 -317q-46 0 -143 20v125q68 -16 115 -16q88 0 127 44t39 144z" />
<glyph unicode="k" horiz-adv-x="1026" d="M158 0v1366h157v-874l469 518h168l-315 -357l356 -653h-164l-294 563l-220 -252v-311h-157z" />
<glyph unicode="l" horiz-adv-x="471" d="M158 0v1366h157v-1366h-157z" />
<glyph unicode="m" horiz-adv-x="1667" d="M158 0v1010h135v-195q114 221 311 221q105 0 179.5 -63t103.5 -178q51 118 132.5 179.5t186.5 61.5q79 0 148.5 -38.5t109.5 -104.5q27 -44 37 -100t10 -166v-627h-153v627q0 82 -6 116t-27 68q-24 41 -69 65.5t-93 24.5q-98 0 -180 -88q-43 -50 -60.5 -104.5 t-17.5 -139.5v-569h-151v664q0 112 -47 170q-61 73 -152 73q-104 0 -176 -88t-72 -215v-604h-149z" />
<glyph unicode="n" horiz-adv-x="1110" d="M158 0v1010h145v-187q78 120 149 166.5t175 46.5q95 0 171.5 -46.5t119.5 -129.5q36 -68 36 -276v-584h-147v649q0 123 -54 187.5t-155 64.5q-122 0 -202.5 -98.5t-80.5 -247.5v-555h-157z" />
<glyph unicode="o" horiz-adv-x="1062" d="M180 150q-102 147 -102 358q0 233 127.5 380.5t329.5 147.5q205 0 327.5 -147t122.5 -395q0 -227 -131.5 -374t-335.5 -147q-216 0 -338 177zM530 102q132 0 207.5 107t75.5 295q0 193 -72 293q-37 51 -94 80.5t-119 29.5q-61 0 -118.5 -30t-90.5 -80q-69 -101 -69 -287 q0 -194 73.5 -301t206.5 -107z" />
<glyph unicode="p" horiz-adv-x="1093" d="M315 154v-496h-157v1352h141v-197q60 117 136 170t183 53q178 0 289 -147t111 -383q0 -238 -112 -385.5t-292 -147.5q-98 0 -166 41.5t-133 139.5zM315 367q19 -114 95.5 -189.5t173.5 -75.5q50 0 101.5 26.5t84.5 68.5q76 101 76 299q0 190 -69.5 296.5t-192.5 106.5 q-94 0 -166 -66.5t-103 -183.5v-282z" />
<glyph unicode="q" horiz-adv-x="1097" d="M782 -342v526q-102 -211 -305 -211q-180 0 -289.5 144.5t-109.5 380.5q0 241 115.5 390.5t300.5 149.5q105 0 170 -41t135 -153l61 180h80v-1366h-158zM782 449v135q-9 94 -26.5 144t-55.5 93q-37 40 -87 63t-101 23q-117 0 -189.5 -111t-72.5 -292q0 -182 70 -288.5 t190 -106.5q69 0 126.5 37t94.5 104q27 47 39 88.5t12 110.5z" />
<glyph unicode="r" horiz-adv-x="673" d="M158 0v1010h137v-236q60 123 104 176q34 40 87.5 64t111.5 24q11 0 57 -4v-149q-143 12 -241.5 -88.5t-98.5 -261.5v-535h-157z" />
<glyph unicode="s" horiz-adv-x="950" d="M379 616l199 -34q307 -55 307 -299q0 -138 -115 -224t-301 -86q-213 0 -344 113q-40 34 -63 72.5t-42 103.5l150 31q22 -79 66 -115q43 -35 109 -55.5t138 -20.5q106 0 172 45.5t66 118.5q0 61 -44.5 101t-129.5 55l-213 39q-129 23 -201 97t-72 181q0 134 104.5 215.5 t276.5 81.5q158 0 259.5 -65t138.5 -191l-144 -30q-70 157 -258 157q-98 0 -157.5 -41t-59.5 -108q0 -115 158 -142z" />
<glyph unicode="t" horiz-adv-x="630" d="M176 279v608h-178v123h178l6 254l148 12v-266h227v-123h-227v-633q0 -158 164 -158q48 0 120 13v-125q-91 -13 -149 -13q-143 0 -216 78t-73 230z" />
<glyph unicode="u" horiz-adv-x="1107" d="M158 365v645h157v-645q0 -132 52 -193q58 -70 147 -70q117 0 199 99t82 239v570h157v-1010h-141v193q-111 -220 -322 -220q-154 0 -242.5 105t-88.5 287z" />
<glyph unicode="v" horiz-adv-x="921" d="M385 0l-360 1010h174l280 -822l279 822h139l-348 -1010h-164z" />
<glyph unicode="w" horiz-adv-x="1359" d="M342 0l-303 1010h158l219 -752l211 752h114l226 -756l227 756h127l-291 -1010h-127l-225 750l-207 -750h-129z" />
<glyph unicode="x" horiz-adv-x="868" d="M6 0l340 524l-307 486h180l217 -344l219 344h152l-295 -453l348 -557h-182l-256 410l-262 -410h-154z" />
<glyph unicode="y" horiz-adv-x="849" d="M29 -219q71 -14 104 -14q107 0 160 86q30 49 67 165l-350 992h160l270 -760l277 760h133l-406 -1129q-52 -141 -139 -203q-52 -38 -158 -38q-47 0 -118 16v125z" />
<glyph unicode="z" horiz-adv-x="866" d="M68 0v121l536 766h-495v123h702v-86l-555 -803h555v-121h-743z" />
<glyph unicode="{" horiz-adv-x="600" d="M236 -49v328q0 85 -26.5 127t-90.5 59v98q63 17 90 58.5t27 121.5v355q0 141 66.5 204.5t215.5 63.5h43v-106q-110 -1 -149 -38.5t-39 -140.5v-346q0 -93 -27.5 -141.5t-99.5 -83.5q70 -34 98.5 -85t28.5 -144v-332q0 -109 37.5 -146.5t150.5 -38.5v-106h-43 q-154 0 -218 66.5t-64 226.5z" />
<glyph unicode="|" horiz-adv-x="1024" d="M436 -342v1708h154v-1708h-154z" />
<glyph unicode="}" horiz-adv-x="600" d="M229 -57v346q0 93 27.5 141.5t99.5 83.5q-70 34 -98.5 85t-28.5 144v332q0 109 -37.5 146.5t-150.5 38.5v106h43q154 0 218.5 -66.5t64.5 -226.5v-328q0 -85 26 -127t90 -59v-98q-63 -17 -89.5 -58.5t-26.5 -121.5v-355q0 -141 -67 -204.5t-216 -63.5h-43v106 q110 1 149 38.5t39 140.5z" />
<glyph unicode="~" d="M199 526l-90 60q60 128 124.5 182.5t155.5 54.5q85 0 229 -69q137 -64 199 -64q57 0 97.5 30t86.5 107l93 -55q-57 -109 -115 -164q-31 -29 -78.5 -48t-89.5 -19q-47 0 -100.5 17.5t-153.5 64.5q-112 53 -180 53q-51 0 -91.5 -34t-86.5 -116z" />
<glyph unicode="&#xa1;" horiz-adv-x="550" d="M172 799v211h209v-211h-209zM158 -342l78 1026h83l74 -1026h-235z" />
<glyph unicode="&#xa2;" d="M555 -57v282q-75 13 -120.5 33.5t-88.5 58.5q-149 137 -149 379q0 118 37 217.5t106 163.5q43 40 90.5 62t124.5 35v249h113v-249q126 -13 213.5 -98.5t109.5 -213.5l-137 -26q-17 89 -70.5 152.5t-115.5 68.5v-709q70 12 120.5 70.5t65.5 144.5l137 -20 q-32 -141 -111.5 -219.5t-211.5 -98.5v-282h-113zM555 348v705q-94 -19 -147.5 -114t-53.5 -245q0 -289 201 -346z" />
<glyph unicode="&#xa3;" d="M-4 0v147q35 3 49 3q104 1 158 18t104 63q46 44 66 95.5t20 126.5q0 65 -18 196l-219 -2v119h206q-18 113 -18 192q0 192 104 313.5t269 121.5q100 0 177.5 -44.5t149.5 -142.5l-112 -86q-61 78 -105.5 106.5t-101.5 28.5q-88 0 -145.5 -68t-57.5 -171q0 -67 13 -174 l8 -76h293v-119l-279 2q6 -108 6 -141q0 -123 -37 -205t-123 -153h320q134 0 205.5 34t120.5 121l131 -84q-53 -106 -145 -163.5t-210 -57.5h-829z" />
<glyph unicode="&#xa4;" horiz-adv-x="1366" d="M195 164l-91 92l195 195q-55 78 -78.5 145t-23.5 147q0 78 22 141.5t78 145.5l-197 197l93 92l196 -197q90 61 152.5 83t142.5 22t141 -21.5t150 -81.5l196 195l93 -92l-197 -195q60 -92 81 -152.5t21 -138.5t-21 -138.5t-79 -149.5l197 -197l-90 -92l-197 196 q-83 -57 -148 -79.5t-145 -22.5q-76 0 -139.5 21.5t-155.5 78.5zM682 395q142 0 244 101.5t102 244.5q0 142 -101 245.5t-239 103.5q-148 0 -249 -101t-101 -248q0 -142 101.5 -244t242.5 -102z" />
<glyph unicode="&#xa5;" d="M106 451v118l412 2l-90 158h-322v117h254l-301 520h201l363 -629l364 629h156l-299 -520h252v-117h-322l-88 -158l410 -2v-118h-412v-451h-164v451h-414z" />
<glyph unicode="&#xa6;" horiz-adv-x="1024" d="M436 682v684h154v-684h-154zM436 313h154v-655h-154v655z" />
<glyph unicode="&#xa7;" d="M135 -72l176 25q22 -46 39.5 -70t48.5 -49q96 -74 222 -74q120 0 202 62.5t82 154.5q0 70 -52 118t-159 77l-207 55q-161 43 -235 114t-74 181q0 91 44.5 158.5t148.5 136.5q-87 52 -125.5 114t-38.5 150q0 143 105 228.5t280 85.5q174 0 295 -92q45 -33 71 -72t48 -103 l-152 -18q-38 89 -102 129.5t-164 40.5t-164 -49t-64 -125q0 -148 244 -217l184 -51q117 -32 183.5 -107.5t66.5 -173.5q0 -74 -37.5 -136.5t-126.5 -137.5q195 -91 195 -281q0 -160 -131 -265.5t-330 -105.5q-212 0 -346 113q-45 38 -72 77t-55 107zM713 700l-221 68 q-156 -84 -156 -199q0 -67 52 -113.5t165 -78.5l197 -55q68 35 104.5 85t36.5 107q0 58 -49 109.5t-129 76.5z" />
<glyph unicode="&#xa8;" horiz-adv-x="1024" d="M668 1202q-41 0 -72 31t-31 74q0 42 31 72t74 30q41 0 71.5 -30.5t30.5 -71.5q0 -43 -30.5 -74t-73.5 -31zM350 1202q-42 0 -72 30.5t-30 72.5q0 43 29.5 72.5t72.5 29.5q41 0 72 -30.5t31 -71.5t-31 -72t-72 -31z" />
<glyph unicode="&#xa9;" horiz-adv-x="1583" d="M86 688q0 191 96 352.5t261 255t360 93.5q139 0 267.5 -56.5t222 -151.5t149 -225.5t55.5 -271.5q0 -144 -55.5 -275t-150 -225.5t-225 -150.5t-273.5 -56q-145 0 -276 56t-225.5 151t-150 226.5t-55.5 277.5zM186 688q0 -166 80.5 -306.5t220.5 -222t306 -81.5 q122 0 234 48t193 129.5t129 193.5t48 235q0 161 -81 300.5t-218.5 221.5t-296.5 82q-276 0 -459 -201q-74 -82 -115 -186.5t-41 -212.5zM989 559l117 -24q-38 -141 -118.5 -210t-207.5 -69q-161 0 -259.5 119.5t-98.5 314.5q0 190 99 304t265 114q252 0 320 -270l-121 -23 q-31 103 -78 149t-123 46q-104 0 -164.5 -88t-60.5 -242q0 -148 60.5 -237t160.5 -89q78 0 132.5 53.5t76.5 151.5z" />
<glyph unicode="&#xaa;" horiz-adv-x="714" d="M623 766h-121q-8 39 -10 82q-68 -98 -211 -98q-103 0 -167.5 52t-64.5 136q0 53 30.5 98.5t82.5 71.5q87 43 256 43h71q1 89 -31 122.5t-120 33.5q-74 0 -110.5 -24.5t-49.5 -84.5l-112 19q8 34 13.5 48t18.5 33q73 95 256 95q137 0 194.5 -57t57.5 -193v-254 q0 -56 17 -123zM489 1065l-71 2q-118 3 -180 -31.5t-62 -101.5q0 -45 33 -71.5t90 -26.5q82 0 137.5 56.5t55.5 139.5q0 12 -3 33z" />
<glyph unicode="&#xab;" horiz-adv-x="704" d="M518 240l-174 292l172 283h92l-106 -283l106 -292h-90zM254 240l-172 292l172 283h90l-106 -283l106 -292h-90z" />
<glyph unicode="&#xac;" d="M158 408v137h886v-545h-153v408h-733z" />
<glyph unicode="&#xad;" horiz-adv-x="512" d="M31 451v122h452v-122h-452z" />
<glyph unicode="&#xae;" horiz-adv-x="1583" d="M86 688q0 191 96 352.5t261 255t360 93.5q139 0 267.5 -56.5t222 -151.5t149 -225.5t55.5 -271.5q0 -144 -55.5 -275t-150 -225.5t-225 -150.5t-273.5 -56q-145 0 -276 56t-225.5 151t-150 226.5t-55.5 277.5zM186 688q0 -166 80.5 -306.5t220.5 -222t306 -81.5 q122 0 234 48t193 129.5t129 193.5t48 235q0 161 -81 300.5t-218.5 221.5t-296.5 82q-276 0 -459 -201q-74 -82 -115 -186.5t-41 -212.5zM487 272v820h347q123 0 200.5 -65.5t77.5 -168.5q0 -74 -41.5 -129.5t-116.5 -81.5l170 -375h-135l-155 349h-226v-349h-121zM608 717 h211q76 0 120 38.5t44 104.5q0 60 -40 94.5t-109 34.5h-226v-272z" />
<glyph unicode="&#xaf;" horiz-adv-x="1024" d="M201 1237v109h620v-109h-620z" />
<glyph unicode="&#xb0;" d="M596 852q-109 0 -187.5 80t-78.5 190q0 112 79.5 191.5t192.5 79.5q112 0 191 -79t79 -192q0 -114 -80 -192t-196 -78zM598 969q66 0 112 45t46 110q0 63 -46 108.5t-110 45.5q-63 0 -108.5 -46t-45.5 -110q0 -63 44.5 -108t107.5 -45z" />
<glyph unicode="&#xb1;" d="M526 195v419h-403v140h403v420h150v-420h403v-140h-403v-419h-150zM123 -41v139h956v-139h-956z" />
<glyph unicode="&#xb2;" horiz-adv-x="792" d="M82 547v92q167 118 257.5 187.5t147 126t72.5 93.5t16 84q0 67 -53 112.5t-131 45.5q-83 0 -136 -50t-62 -136l-113 33q64 247 313 247q129 0 215 -71t86 -178q0 -106 -98.5 -213.5t-349.5 -276.5h450v-96h-614z" />
<glyph unicode="&#xb3;" horiz-adv-x="792" d="M190 1155l-108 29q43 101 119.5 149.5t193.5 48.5q123 0 203 -63t80 -160q0 -63 -36.5 -111t-102.5 -71q80 -19 126 -72.5t46 -128.5q0 -109 -91.5 -177.5t-238.5 -68.5q-247 0 -330 209l113 35q28 -80 78 -113.5t145 -33.5q92 0 146.5 40t54.5 107q0 72 -58.5 112 t-162.5 40h-105v92h105q91 0 140.5 35.5t49.5 99.5q0 60 -47.5 97.5t-122.5 37.5q-144 0 -197 -133z" />
<glyph unicode="&#xb4;" horiz-adv-x="1024" d="M422 1167l-43 80l395 230l62 -121z" />
<glyph unicode="&#xb5;" d="M360 131v-473h-157v1352h157v-568q0 -88 10.5 -134.5t39.5 -90.5q67 -104 186 -104q63 0 115.5 30t83.5 84q45 75 45 230v553h157v-1010h-143v158q-56 -103 -112 -144t-142 -41q-80 0 -138 38t-102 120z" />
<glyph unicode="&#xb6;" d="M651 -342v1067h-149q-196 0 -273 35q-155 73 -155 266q0 101 42.5 182t116.5 119q77 39 271 39h581v-96h-137v-1612h-100v1612h-96v-1612h-101zM510 821h141v449h-110q-111 0 -162.5 -12.5t-83.5 -47.5q-55 -55 -55 -170q0 -117 62.5 -168t207.5 -51z" />
<glyph unicode="&#xb7;" horiz-adv-x="223" d="M0 408v223h223v-223h-223z" />
<glyph unicode="&#xb8;" horiz-adv-x="1024" d="M385 -162l53 162h66l-27 -92q74 -5 119 -21q35 -14 57.5 -45.5t22.5 -68.5q0 -68 -52 -107t-141 -39q-98 0 -176 45l25 66q73 -37 139 -37q47 0 75.5 20t28.5 52q0 69 -122 69q-2 0 -68 -4z" />
<glyph unicode="&#xb9;" horiz-adv-x="792" d="M160 547v88h225v600q-109 -106 -231 -170v117q161 81 262 200h86v-747h209v-88h-551z" />
<glyph unicode="&#xba;" horiz-adv-x="704" d="M342 752q-128 0 -206.5 88.5t-78.5 234.5q0 140 82.5 229t212.5 89q133 0 213 -89t80 -237q0 -138 -85.5 -226.5t-217.5 -88.5zM350 842q77 0 121.5 61t44.5 168q0 109 -44 170.5t-122 61.5q-76 0 -120 -61t-44 -167q0 -110 43 -171.5t121 -61.5z" />
<glyph unicode="&#xbb;" horiz-adv-x="704" d="M360 240l107 282l-107 293h91l172 -293l-172 -282h-91zM96 240l107 282l-107 293h92l172 -293l-172 -282h-92z" />
<glyph unicode="&#xbc;" horiz-adv-x="1802" d="M109 547v88h225v600q-108 -105 -232 -170v117q163 82 263 200h86v-747h208v-88h-550zM412 0l827 1366h123l-825 -1366h-125zM1051 190v78l389 568h143v-551h139v-95h-139v-190h-117v190h-415zM1180 285h286v374v62q-17 -33 -30 -51z" />
<glyph unicode="&#xbd;" horiz-adv-x="1802" d="M94 547v88h225v600q-109 -106 -231 -170v117q161 81 262 200h86v-747h209v-88h-551zM397 0l828 1366h123l-826 -1366h-125zM1102 0v92q219 156 319.5 238.5t137 137t36.5 116.5q0 67 -53 112t-131 45q-83 0 -136.5 -50t-60.5 -136l-114 31q64 250 313 250q129 0 216 -72 t87 -178q0 -105 -100 -214.5t-350 -275.5h452v-96h-616z" />
<glyph unicode="&#xbe;" horiz-adv-x="1802" d="M180 1155l-108 29q43 101 119.5 149.5t193.5 48.5q123 0 203 -63t80 -160q0 -63 -37 -111t-103 -71q80 -19 126 -72.5t46 -128.5q0 -109 -91 -177.5t-238 -68.5q-247 0 -330 209l113 35q28 -80 78 -113.5t145 -33.5q92 0 146.5 40t54.5 107q0 72 -59 112t-163 40h-104v92 h104q91 0 141 35.5t50 99.5q0 60 -47.5 97.5t-122.5 37.5q-144 0 -197 -133zM481 0l826 1366h125l-826 -1366h-125zM1077 190v78l391 568h144v-551h137v-95h-137v-190h-117v190h-418zM1206 285h289v374v62l-31 -51z" />
<glyph unicode="&#xbf;" horiz-adv-x="1034" d="M465 813v197h203v-197h-203zM846 66l147 -31q-17 -98 -43.5 -156.5t-79.5 -114.5q-124 -133 -342 -133q-198 0 -322 108t-124 281q0 114 61.5 199.5t194.5 157.5q117 63 140.5 94.5t21.5 122.5q-2 41 -2 90h145q-2 -14 -2 -33v-104q0 -129 -66 -195q-22 -22 -92 -61 l-77 -43q-71 -40 -108.5 -100.5t-37.5 -133.5q0 -106 78.5 -174.5t198.5 -68.5q67 0 129.5 28t99.5 74q29 36 45.5 77t34.5 116z" />
<glyph unicode="&#xc0;" horiz-adv-x="1128" d="M600 1495l-414 176l62 119l395 -215zM6 0l443 1366h196l445 -1366h-177l-137 399h-506l-120 -399h-144zM319 528h420l-209 656z" />
<glyph unicode="&#xc1;" horiz-adv-x="1128" d="M485 1495l-43 80l396 215l61 -119zM6 0l443 1366h196l445 -1366h-177l-137 399h-506l-120 -399h-144zM319 528h420l-209 656z" />
<glyph unicode="&#xc2;" horiz-adv-x="1128" d="M223 1522l334 245l330 -245l-142 -21l-190 121l-184 -121zM6 0l443 1366h196l445 -1366h-177l-137 399h-506l-120 -399h-144zM319 528h420l-209 656z" />
<glyph unicode="&#xc3;" horiz-adv-x="1128" d="M311 1534l-84 59q86 127 224 127q35 0 57 -6.5t117 -46.5q44 -18 86 -18q32 0 59 11.5t64 41.5l75 -74q-63 -58 -105.5 -79t-98.5 -21q-34 0 -55 7t-115 48q-46 19 -93 19q-40 0 -69.5 -15t-61.5 -53zM6 0l443 1366h196l445 -1366h-177l-137 399h-506l-120 -399h-144z M319 528h420l-209 656z" />
<glyph unicode="&#xc4;" horiz-adv-x="1128" d="M717 1522q-41 0 -72 31t-31 73q0 43 31 73t74 30q41 0 71.5 -31t30.5 -72q0 -43 -30.5 -73.5t-73.5 -30.5zM399 1522q-42 0 -72 30t-30 72q0 43 29.5 72.5t72.5 29.5q41 0 72 -30.5t31 -71.5t-31 -71.5t-72 -30.5zM6 0l443 1366h196l445 -1366h-177l-137 399h-506 l-120 -399h-144zM319 528h420l-209 656z" />
<glyph unicode="&#xc5;" horiz-adv-x="1128" d="M543 1456q-75 0 -129 53t-54 127q0 75 54 128t131 53q72 0 124 -54t52 -129q0 -74 -52.5 -126t-125.5 -52zM543 1544q37 0 62.5 26.5t25.5 63.5q0 38 -25.5 65t-62.5 27q-38 0 -65 -26.5t-27 -63.5q0 -38 27 -65t65 -27zM6 0l443 1366h196l445 -1366h-177l-137 399h-506 l-120 -399h-144zM319 528h420l-209 656z" />
<glyph unicode="&#xc6;" horiz-adv-x="1855" d="M-27 0l813 1366h977v-141h-743v-443h600v-137h-600v-495h768v-150h-938v422h-459l-252 -422h-166zM465 555h385v662z" />
<glyph unicode="&#xc7;" horiz-adv-x="1185" d="M457 -291q86 -39 155 -39q54 0 84.5 20.5t30.5 57.5q0 78 -135 78q-20 0 -76 -6l53 157q-218 26 -350.5 223.5t-132.5 495.5q0 317 154.5 507t412.5 190q384 0 492 -439l-160 -32q-51 172 -129.5 248.5t-204.5 76.5q-178 0 -278.5 -151t-100.5 -420q0 -255 101.5 -407 t271.5 -152q74 0 142.5 34t109.5 91q31 43 50 87.5t42 129.5l156 -35q-54 -221 -180 -336.5t-316 -116.5l-24 -77l34 2q77 4 130 -41t53 -111q0 -71 -59 -113.5t-158 -42.5q-55 0 -97.5 11t-95.5 39z" />
<glyph unicode="&#xc8;" horiz-adv-x="1122" d="M702 1495l-415 176l61 119l397 -215zM170 0v1366h864v-149h-694v-437h551v-139h-551v-491h713v-150h-883z" />
<glyph unicode="&#xc9;" horiz-adv-x="1122" d="M528 1495l-43 80l396 215l61 -119zM170 0v1366h864v-149h-694v-437h551v-139h-551v-491h713v-150h-883z" />
<glyph unicode="&#xca;" horiz-adv-x="1122" d="M293 1522l336 245l327 -245l-141 -21l-190 121l-185 -121zM170 0v1366h864v-149h-694v-437h551v-139h-551v-491h713v-150h-883z" />
<glyph unicode="&#xcb;" horiz-adv-x="1122" d="M788 1522q-41 0 -71.5 30.5t-30.5 73.5t31 73t74 30q41 0 71.5 -31t30.5 -72q0 -43 -31 -73.5t-74 -30.5zM469 1522q-42 0 -72 30t-30 72q0 43 29.5 72.5t72.5 29.5q41 0 71.5 -30.5t30.5 -71.5t-30.5 -71.5t-71.5 -30.5zM170 0v1366h864v-149h-694v-437h551v-139h-551 v-491h713v-150h-883z" />
<glyph unicode="&#xcc;" horiz-adv-x="512" d="M307 1495l-375 180l62 115l354 -215zM172 0v1366h170v-1366h-170z" />
<glyph unicode="&#xcd;" horiz-adv-x="512" d="M207 1495l-43 80l354 215l62 -115zM170 0v1366h170v-1366h-170z" />
<glyph unicode="&#xce;" horiz-adv-x="512" d="M111 1501l-140 21l293 245l289 -245l-135 -21l-156 121zM170 0v1366h170v-1366h-170z" />
<glyph unicode="&#xcf;" horiz-adv-x="512" d="M397 1522q-41 0 -71.5 30.5t-30.5 73.5t30.5 73t73.5 30q41 0 72 -31t31 -72q0 -43 -31 -73.5t-74 -30.5zM123 1522q-43 0 -73 30t-30 72q0 43 30 72.5t73 29.5q41 0 71.5 -30.5t30.5 -71.5t-30.5 -71.5t-71.5 -30.5zM172 0v1366h170v-1366h-170z" />
<glyph unicode="&#xd0;" horiz-adv-x="1325" d="M172 0v655h-137v138h137v573h455q246 0 405 -149q100 -95 153.5 -231.5t53.5 -297.5q0 -195 -72 -352.5t-199.5 -246.5t-283.5 -89h-512zM342 145h276q92 0 170.5 29.5t129.5 83.5q69 72 108 187t39 243q0 257 -143 416q-110 119 -306 119h-274v-430h326v-138h-326v-510z " />
<glyph unicode="&#xd1;" horiz-adv-x="1345" d="M449 1534l-84 59q89 127 223 127q35 0 57 -6.5t119 -46.5q40 -18 84 -18q58 0 125 53l76 -74q-64 -58 -107.5 -79t-97.5 -21q-34 0 -55 7t-115 48q-46 19 -92 19q-41 0 -70 -15t-63 -53zM170 0v1366h213l661 -1114l-2 94q-2 51 -2 100v920h136v-1366h-166l-707 1190 l2 -90q2 -45 2 -86v-1014h-137z" />
<glyph unicode="&#xd2;" horiz-adv-x="1292" d="M717 1495l-416 176l61 119l398 -215zM256 150q-170 207 -170 530q0 208 70.5 370.5t198.5 252.5t292 90q252 0 405.5 -194.5t153.5 -514.5q0 -155 -47.5 -296t-134.5 -243q-144 -172 -381 -172q-245 0 -387 177zM647 113q172 0 276.5 157.5t104.5 415.5 q0 266 -101.5 416.5t-281.5 150.5q-173 0 -277 -157t-104 -418q0 -255 105 -410t278 -155z" />
<glyph unicode="&#xd3;" horiz-adv-x="1292" d="M575 1495l-40 80l395 215l61 -119zM256 150q-170 207 -170 530q0 208 70.5 370.5t198.5 252.5t292 90q252 0 405.5 -194.5t153.5 -514.5q0 -155 -47.5 -296t-134.5 -243q-144 -172 -381 -172q-245 0 -387 177zM647 113q172 0 276.5 157.5t104.5 415.5q0 266 -101.5 416.5 t-281.5 150.5q-173 0 -277 -157t-104 -418q0 -255 105 -410t278 -155z" />
<glyph unicode="&#xd4;" horiz-adv-x="1292" d="M328 1522l336 245l327 -245l-141 -21l-191 121l-184 -121zM256 150q-170 207 -170 530q0 208 70.5 370.5t198.5 252.5t292 90q252 0 405.5 -194.5t153.5 -514.5q0 -155 -47.5 -296t-134.5 -243q-144 -172 -381 -172q-245 0 -387 177zM647 113q172 0 276.5 157.5 t104.5 415.5q0 266 -101.5 416.5t-281.5 150.5q-173 0 -277 -157t-104 -418q0 -255 105 -410t278 -155z" />
<glyph unicode="&#xd5;" horiz-adv-x="1292" d="M430 1534l-84 59q86 127 223 127q35 0 57 -6.5t117 -46.5q43 -18 86 -18q32 0 59 11.5t64 41.5l78 -74q-64 -58 -107.5 -79t-99.5 -21q-34 0 -55 7t-115 48q-46 19 -90 19q-42 0 -71.5 -15t-61.5 -53zM256 150q-170 207 -170 530q0 208 70.5 370.5t198.5 252.5t292 90 q252 0 405.5 -194.5t153.5 -514.5q0 -155 -47.5 -296t-134.5 -243q-144 -172 -381 -172q-245 0 -387 177zM647 113q172 0 276.5 157.5t104.5 415.5q0 266 -101.5 416.5t-281.5 150.5q-173 0 -277 -157t-104 -418q0 -255 105 -410t278 -155z" />
<glyph unicode="&#xd6;" horiz-adv-x="1292" d="M809 1522q-41 0 -71.5 30.5t-30.5 73.5t30.5 73t73.5 30q41 0 71.5 -31t30.5 -72q0 -43 -30.5 -73.5t-73.5 -30.5zM492 1522q-42 0 -72.5 30t-30.5 72q0 43 30 72.5t73 29.5q41 0 71.5 -30.5t30.5 -71.5t-30.5 -71.5t-71.5 -30.5zM256 150q-170 207 -170 530 q0 208 70.5 370.5t198.5 252.5t292 90q252 0 405.5 -194.5t153.5 -514.5q0 -155 -47.5 -296t-134.5 -243q-144 -172 -381 -172q-245 0 -387 177zM647 113q172 0 276.5 157.5t104.5 415.5q0 266 -101.5 416.5t-281.5 150.5q-173 0 -277 -157t-104 -418q0 -255 105 -410 t278 -155z" />
<glyph unicode="&#xd7;" d="M293 276l-98 99l309 309l-309 309l98 99l309 -310l307 310l99 -99l-310 -309l310 -309l-99 -99l-307 310z" />
<glyph unicode="&#xd8;" horiz-adv-x="1292" d="M63 -49l158 242q-135 207 -135 485q0 211 70 373.5t198 252t293 89.5q97 0 173 -26t155 -87l98 139h146l-158 -233q145 -195 145 -494q0 -316 -170 -532q-147 -189 -397 -189q-105 0 -178.5 27.5t-157.5 99.5l-96 -147h-144zM332 334l545 827q-92 92 -234 92 q-172 0 -275.5 -155t-103.5 -412q0 -204 68 -352zM406 223q52 -61 107 -86.5t132 -25.5q176 0 270 143q113 176 113 438q0 205 -74 363z" />
<glyph unicode="&#xd9;" horiz-adv-x="1241" d="M684 1495l-416 176l62 119l397 -215zM1090 1366v-893q0 -117 -21.5 -195t-71.5 -143q-122 -162 -383 -162q-270 0 -383 162q-43 63 -62 142t-19 196v893h169v-893q0 -177 56 -250q35 -46 104.5 -73t149.5 -27q79 0 145.5 26.5t106.5 73.5q36 42 51.5 100t15.5 150v893 h142z" />
<glyph unicode="&#xda;" horiz-adv-x="1241" d="M584 1495l-43 80l397 215l61 -119zM1090 1366v-893q0 -117 -21.5 -195t-71.5 -143q-122 -162 -383 -162q-270 0 -383 162q-43 63 -62 142t-19 196v893h169v-893q0 -177 56 -250q35 -46 104.5 -73t149.5 -27q79 0 145.5 26.5t106.5 73.5q36 42 51.5 100t15.5 150v893h142z " />
<glyph unicode="&#xdb;" horiz-adv-x="1241" d="M309 1522l334 245l330 -245l-142 -21l-190 121l-184 -121zM1090 1366v-893q0 -117 -21.5 -195t-71.5 -143q-122 -162 -383 -162q-270 0 -383 162q-43 63 -62 142t-19 196v893h169v-893q0 -177 56 -250q35 -46 104.5 -73t149.5 -27q79 0 145.5 26.5t106.5 73.5 q36 42 51.5 100t15.5 150v893h142z" />
<glyph unicode="&#xdc;" horiz-adv-x="1241" d="M803 1522q-41 0 -72 31t-31 73q0 43 31 73t74 30q41 0 71.5 -31t30.5 -72q0 -43 -30.5 -73.5t-73.5 -30.5zM485 1522q-42 0 -72 30t-30 72q0 43 29.5 72.5t72.5 29.5q41 0 72 -30.5t31 -71.5t-31 -71.5t-72 -30.5zM1090 1366v-893q0 -117 -21.5 -195t-71.5 -143 q-122 -162 -383 -162q-270 0 -383 162q-43 63 -62 142t-19 196v893h169v-893q0 -177 56 -250q35 -46 104.5 -73t149.5 -27q79 0 145.5 26.5t106.5 73.5q36 42 51.5 100t15.5 150v893h142z" />
<glyph unicode="&#xdd;" horiz-adv-x="1044" d="M479 1495l-43 80l398 215l61 -119zM436 0v575l-456 791h200l363 -629l364 629h156l-457 -791v-575h-170z" />
<glyph unicode="&#xde;" horiz-adv-x="1159" d="M170 0v1366h170v-199h313q186 0 293 -84q68 -54 109 -142t41 -181q0 -177 -119 -290.5t-305 -113.5h-332v-356h-170zM340 498h313q122 0 195.5 72t73.5 190q0 117 -71 190.5t-185 73.5h-326v-526z" />
<glyph unicode="&#xdf;" horiz-adv-x="1161" d="M158 -88v879h-107v127h107q8 110 22 172t47 127q51 101 149.5 158t223.5 57q160 0 268.5 -85.5t108.5 -211.5q0 -127 -111 -205t-293 -78q-23 0 -30.5 -3.5t-7.5 -14.5q0 -17 27.5 -32.5t115.5 -47.5q241 -89 335.5 -179t94.5 -231q0 -166 -122 -276.5t-306 -110.5 q-88 0 -225 33l45 114q98 -20 157 -20q120 0 199.5 68.5t79.5 171.5q0 62 -39 114.5t-106 81.5l-250 109q-156 67 -156 168q0 51 35 110q9 15 24 21.5t50 9.5q143 12 227 67t84 138q0 71 -57.5 115.5t-149.5 44.5q-131 0 -207 -89t-76 -243v-1059h-157z" />
<glyph unicode="&#xe0;" horiz-adv-x="1083" d="M633 1167l-416 189l62 121l395 -230zM948 0h-155q-13 63 -19 182q-61 -112 -143 -160.5t-211 -48.5q-156 0 -254 85.5t-98 220.5q0 86 46 161t124 115q139 74 405 74q68 0 131 -4v32q0 128 -39 179q-61 82 -225 82q-229 0 -270 -185l-146 25q10 57 27 91t49 66 q120 123 375 123q226 0 313 -118q37 -51 52.5 -118t15.5 -177v-428q0 -113 22 -197zM236 274q0 -82 58.5 -131t156.5 -49q137 0 231 100t94 246q0 39 -2 66q-106 4 -133 4q-197 0 -301 -60.5t-104 -175.5z" />
<glyph unicode="&#xe1;" horiz-adv-x="1083" d="M471 1167l-43 80l395 230l62 -121zM948 0h-155q-13 63 -19 182q-61 -112 -143 -160.5t-211 -48.5q-156 0 -254 85.5t-98 220.5q0 86 46 161t124 115q139 74 405 74q68 0 131 -4v32q0 128 -39 179q-61 82 -225 82q-229 0 -270 -185l-146 25q10 57 27 91t49 66 q120 123 375 123q226 0 313 -118q37 -51 52.5 -118t15.5 -177v-428q0 -113 22 -197zM236 274q0 -82 58.5 -131t156.5 -49q137 0 231 100t94 246q0 39 -2 66q-106 4 -133 4q-197 0 -301 -60.5t-104 -175.5z" />
<glyph unicode="&#xe2;" horiz-adv-x="1083" d="M211 1194l334 260l329 -260l-141 -20l-190 135l-185 -135zM948 0h-155q-13 63 -19 182q-61 -112 -143 -160.5t-211 -48.5q-156 0 -254 85.5t-98 220.5q0 86 46 161t124 115q139 74 405 74q68 0 131 -4v32q0 128 -39 179q-61 82 -225 82q-229 0 -270 -185l-146 25 q10 57 27 91t49 66q120 123 375 123q226 0 313 -118q37 -51 52.5 -118t15.5 -177v-428q0 -113 22 -197zM236 274q0 -82 58.5 -131t156.5 -49q137 0 231 100t94 246q0 39 -2 66q-106 4 -133 4q-197 0 -301 -60.5t-104 -175.5z" />
<glyph unicode="&#xe3;" horiz-adv-x="1083" d="M283 1214l-84 60q89 127 223 127q35 0 57 -6.5t117 -46.5q46 -19 86 -19q61 0 125 51l76 -71q-64 -58 -107.5 -79.5t-97.5 -21.5q-33 0 -53.5 7t-116.5 49q-43 18 -92 18q-41 0 -70.5 -15.5t-62.5 -52.5zM948 0h-155q-13 63 -19 182q-61 -112 -143 -160.5t-211 -48.5 q-156 0 -254 85.5t-98 220.5q0 86 46 161t124 115q139 74 405 74q68 0 131 -4v32q0 128 -39 179q-61 82 -225 82q-229 0 -270 -185l-146 25q10 57 27 91t49 66q120 123 375 123q226 0 313 -118q37 -51 52.5 -118t15.5 -177v-428q0 -113 22 -197zM236 274q0 -82 58.5 -131 t156.5 -49q137 0 231 100t94 246q0 39 -2 66q-106 4 -133 4q-197 0 -301 -60.5t-104 -175.5z" />
<glyph unicode="&#xe4;" horiz-adv-x="1083" d="M690 1202q-41 0 -71.5 31t-30.5 74t30.5 72.5t73.5 29.5q41 0 72 -30.5t31 -71.5q0 -43 -31 -74t-74 -31zM373 1202q-42 0 -72.5 30.5t-30.5 72.5q0 43 30 72.5t73 29.5q41 0 71.5 -30.5t30.5 -71.5t-30.5 -72t-71.5 -31zM948 0h-155q-13 63 -19 182 q-61 -112 -143 -160.5t-211 -48.5q-156 0 -254 85.5t-98 220.5q0 86 46 161t124 115q139 74 405 74q68 0 131 -4v32q0 128 -39 179q-61 82 -225 82q-229 0 -270 -185l-146 25q10 57 27 91t49 66q120 123 375 123q226 0 313 -118q37 -51 52.5 -118t15.5 -177v-428 q0 -113 22 -197zM236 274q0 -82 58.5 -131t156.5 -49q137 0 231 100t94 246q0 39 -2 66q-106 4 -133 4q-197 0 -301 -60.5t-104 -175.5z" />
<glyph unicode="&#xe5;" horiz-adv-x="1083" d="M549 1153q-71 0 -122.5 51t-51.5 123t52 123t124 51q70 0 120 -52t50 -124q0 -71 -50 -121.5t-122 -50.5zM549 1235q37 0 63.5 27t26.5 65q0 37 -26.5 64.5t-61.5 27.5q-38 0 -66 -27t-28 -65q0 -37 27.5 -64.5t64.5 -27.5zM948 0h-155q-13 63 -19 182 q-61 -112 -143 -160.5t-211 -48.5q-156 0 -254 85.5t-98 220.5q0 86 46 161t124 115q139 74 405 74q68 0 131 -4v32q0 128 -39 179q-61 82 -225 82q-229 0 -270 -185l-146 25q10 57 27 91t49 66q120 123 375 123q226 0 313 -118q37 -51 52.5 -118t15.5 -177v-428 q0 -113 22 -197zM236 274q0 -82 58.5 -131t156.5 -49q137 0 231 100t94 246q0 39 -2 66q-106 4 -133 4q-197 0 -301 -60.5t-104 -175.5z" />
<glyph unicode="&#xe6;" horiz-adv-x="1722" d="M1483 297l141 -27q-46 -140 -158 -218.5t-266 -78.5q-139 0 -236 61t-171 195q-54 -132 -146.5 -195t-230.5 -63q-158 0 -255.5 83t-97.5 218q0 93 49 168.5t136 118.5q135 66 377 66q28 0 135 -7q2 25 2 66q0 236 -258 236q-101 0 -167.5 -47t-86.5 -132l-150 27 q17 63 41.5 101.5t67.5 70.5q125 96 326 96q123 0 200.5 -33t141.5 -112q133 145 327 145q118 0 213 -56.5t154 -160.5q33 -59 49 -134t22 -198h-731q0 -90 11 -141.5t41 -103.5q37 -65 104 -102.5t145 -37.5q95 0 159.5 46.5t111.5 148.5zM918 604h552q-6 146 -76 227.5 t-190 81.5q-121 0 -198 -83t-88 -226zM756 449v53q-90 10 -138 10q-178 0 -280 -61.5t-102 -167.5q0 -78 55 -129.5t141 -51.5q73 0 141.5 33.5t112.5 91.5q70 87 70 222z" />
<glyph unicode="&#xe7;" horiz-adv-x="954" d="M393 -164l45 139q-167 26 -263.5 167.5t-96.5 359.5q0 241 119.5 387.5t314.5 146.5q155 0 253.5 -90t129.5 -262l-141 -27q-15 98 -54 154q-71 96 -190 96q-123 0 -195.5 -107.5t-72.5 -291.5q0 -190 70.5 -298t195.5 -108q95 0 157.5 63.5t88.5 186.5l141 -24 q-28 -166 -133 -262.5t-256 -94.5l-19 -65q71 -2 117 -19q35 -14 57.5 -45.5t22.5 -68.5q0 -67 -51 -106.5t-139 -39.5q-101 0 -179 45l25 64q74 -35 139 -35q47 0 76 20t29 52q0 69 -121 69q-21 0 -70 -6z" />
<glyph unicode="&#xe8;" horiz-adv-x="1064" d="M645 1167l-416 189l62 121l395 -230zM987 492h-735q0 -89 9 -138.5t32 -97.5q34 -69 105 -111.5t153 -42.5q62 0 117.5 24.5t93.5 68.5q28 31 61 106l146 -31q-50 -140 -162.5 -218.5t-265.5 -78.5q-207 0 -335 145.5t-128 381.5q0 237 131 386.5t338 149.5 q127 0 227 -61t154 -172q31 -66 44.5 -136.5t14.5 -174.5zM260 608h555q-1 70 -13.5 113.5t-43.5 87.5q-75 106 -209 106t-217 -106q-33 -41 -48.5 -84.5t-23.5 -116.5z" />
<glyph unicode="&#xe9;" horiz-adv-x="1064" d="M469 1167l-43 80l395 230l62 -121zM987 492h-735q0 -89 9 -138.5t32 -97.5q34 -69 105 -111.5t153 -42.5q62 0 117.5 24.5t93.5 68.5q28 31 61 106l146 -31q-50 -140 -162.5 -218.5t-265.5 -78.5q-207 0 -335 145.5t-128 381.5q0 237 131 386.5t338 149.5q127 0 227 -61 t154 -172q31 -66 44.5 -136.5t14.5 -174.5zM260 608h555q-1 70 -13.5 113.5t-43.5 87.5q-75 106 -209 106t-217 -106q-33 -41 -48.5 -84.5t-23.5 -116.5z" />
<glyph unicode="&#xea;" horiz-adv-x="1064" d="M221 1194l334 260l330 -260l-142 -20l-190 135l-184 -135zM987 492h-735q0 -89 9 -138.5t32 -97.5q34 -69 105 -111.5t153 -42.5q62 0 117.5 24.5t93.5 68.5q28 31 61 106l146 -31q-50 -140 -162.5 -218.5t-265.5 -78.5q-207 0 -335 145.5t-128 381.5q0 237 131 386.5 t338 149.5q127 0 227 -61t154 -172q31 -66 44.5 -136.5t14.5 -174.5zM260 608h555q-1 70 -13.5 113.5t-43.5 87.5q-75 106 -209 106t-217 -106q-33 -41 -48.5 -84.5t-23.5 -116.5z" />
<glyph unicode="&#xeb;" horiz-adv-x="1064" d="M705 1202q-41 0 -72 31t-31 74q0 42 31 72t74 30q41 0 71.5 -30.5t30.5 -71.5q0 -43 -30.5 -74t-73.5 -31zM399 1202q-42 0 -72 30.5t-30 72.5q0 43 29.5 72.5t72.5 29.5q41 0 72 -30.5t31 -71.5t-31 -72t-72 -31zM987 492h-735q0 -89 9 -138.5t32 -97.5 q34 -69 105 -111.5t153 -42.5q62 0 117.5 24.5t93.5 68.5q28 31 61 106l146 -31q-50 -140 -162.5 -218.5t-265.5 -78.5q-207 0 -335 145.5t-128 381.5q0 237 131 386.5t338 149.5q127 0 227 -61t154 -172q31 -66 44.5 -136.5t14.5 -174.5zM260 608h555q-1 70 -13.5 113.5 t-43.5 87.5q-75 106 -209 106t-217 -106q-33 -41 -48.5 -84.5t-23.5 -116.5z" />
<glyph unicode="&#xec;" horiz-adv-x="468" d="M272 1167l-338 201l64 109l321 -230zM156 0v1010h157v-1010h-157z" />
<glyph unicode="&#xed;" horiz-adv-x="468" d="M203 1167l-47 80l321 230l64 -109zM156 0v1010h157v-1010h-157z" />
<glyph unicode="&#xee;" horiz-adv-x="468" d="M106 1174l-135 20l273 260l268 -260l-131 -20l-139 135zM156 0v1010h157v-1010h-157z" />
<glyph unicode="&#xef;" horiz-adv-x="468" d="M375 1202q-41 0 -72 31t-31 74q0 42 31 72t74 30q41 0 71.5 -30.5t30.5 -71.5q0 -43 -30.5 -74t-73.5 -31zM100 1202q-42 0 -72 30.5t-30 72.5q0 43 29.5 72.5t72.5 29.5q41 0 72 -30.5t31 -71.5t-31 -72t-72 -31zM156 0v1010h157v-1010h-157z" />
<glyph unicode="&#xf0;" horiz-adv-x="1060" d="M856 1333l-151 -86q276 -282 276 -710q0 -306 -160 -451q-127 -115 -297 -115q-243 0 -360 199q-86 147 -86 322q0 217 124 367.5t302 150.5q73 0 129 -26.5t115 -88.5q-26 86 -64.5 150.5t-103.5 132.5l-174 -103l-62 88l148 88q-63 46 -164 95l75 81q121 -40 207 -106 l176 98zM530 100q127 0 203 105t76 280q0 178 -77.5 287t-203.5 109t-202 -105t-76 -278q0 -186 74.5 -292t205.5 -106z" />
<glyph unicode="&#xf1;" horiz-adv-x="1110" d="M326 1214l-84 60q89 127 223 127q35 0 57 -6.5t117 -46.5q46 -19 86 -19q61 0 125 51l76 -71q-64 -58 -107.5 -79.5t-97.5 -21.5q-33 0 -53.5 7t-116.5 49q-44 18 -92 18q-41 0 -70.5 -15.5t-62.5 -52.5zM158 0v1010h145v-187q78 120 149 166.5t175 46.5 q95 0 171.5 -46.5t119.5 -129.5q36 -68 36 -276v-584h-147v649q0 123 -54 187.5t-155 64.5q-122 0 -202.5 -98.5t-80.5 -247.5v-555h-157z" />
<glyph unicode="&#xf2;" horiz-adv-x="1062" d="M616 1167l-415 189l61 121l395 -230zM180 150q-102 147 -102 358q0 233 127.5 380.5t329.5 147.5q205 0 327.5 -147t122.5 -395q0 -227 -131.5 -374t-335.5 -147q-216 0 -338 177zM530 102q132 0 207.5 107t75.5 295q0 193 -72 293q-37 51 -94 80.5t-119 29.5 q-61 0 -118.5 -30t-90.5 -80q-69 -101 -69 -287q0 -194 73.5 -301t206.5 -107z" />
<glyph unicode="&#xf3;" horiz-adv-x="1062" d="M449 1167l-43 80l395 230l61 -121zM180 150q-102 147 -102 358q0 233 127.5 380.5t329.5 147.5q205 0 327.5 -147t122.5 -395q0 -227 -131.5 -374t-335.5 -147q-216 0 -338 177zM530 102q132 0 207.5 107t75.5 295q0 193 -72 293q-37 51 -94 80.5t-119 29.5 q-61 0 -118.5 -30t-90.5 -80q-69 -101 -69 -287q0 -194 73.5 -301t206.5 -107z" />
<glyph unicode="&#xf4;" horiz-adv-x="1062" d="M213 1194l334 260l330 -260l-142 -20l-190 135l-185 -135zM180 150q-102 147 -102 358q0 233 127.5 380.5t329.5 147.5q205 0 327.5 -147t122.5 -395q0 -227 -131.5 -374t-335.5 -147q-216 0 -338 177zM530 102q132 0 207.5 107t75.5 295q0 193 -72 293q-37 51 -94 80.5 t-119 29.5q-61 0 -118.5 -30t-90.5 -80q-69 -101 -69 -287q0 -194 73.5 -301t206.5 -107z" />
<glyph unicode="&#xf5;" horiz-adv-x="1062" d="M322 1214l-84 60q89 127 223 127q35 0 57 -6.5t117 -46.5q46 -19 86 -19q61 0 125 51l76 -71q-64 -58 -107.5 -79.5t-97.5 -21.5q-33 0 -53.5 7t-116.5 49q-43 18 -92 18q-41 0 -70.5 -15.5t-62.5 -52.5zM180 150q-102 147 -102 358q0 233 127.5 380.5t329.5 147.5 q205 0 327.5 -147t122.5 -395q0 -227 -131.5 -374t-335.5 -147q-216 0 -338 177zM530 102q132 0 207.5 107t75.5 295q0 193 -72 293q-37 51 -94 80.5t-119 29.5q-61 0 -118.5 -30t-90.5 -80q-69 -101 -69 -287q0 -194 73.5 -301t206.5 -107z" />
<glyph unicode="&#xf6;" horiz-adv-x="1062" d="M700 1202q-41 0 -71.5 31t-30.5 74t30.5 72.5t73.5 29.5q41 0 72 -30.5t31 -71.5q0 -43 -31 -74t-74 -31zM383 1202q-42 0 -72 30.5t-30 72.5q0 43 29.5 72.5t72.5 29.5q41 0 71.5 -30.5t30.5 -71.5t-30.5 -72t-71.5 -31zM180 150q-102 147 -102 358q0 233 127.5 380.5 t329.5 147.5q205 0 327.5 -147t122.5 -395q0 -227 -131.5 -374t-335.5 -147q-216 0 -338 177zM530 102q132 0 207.5 107t75.5 295q0 193 -72 293q-37 51 -94 80.5t-119 29.5q-61 0 -118.5 -30t-90.5 -80q-69 -101 -69 -287q0 -194 73.5 -301t206.5 -107z" />
<glyph unicode="&#xf7;" d="M600 895q-40 0 -68 28t-28 68t28.5 68t69.5 28q38 0 66 -29t28 -67q0 -40 -28 -68t-68 -28zM123 614v140h956v-140h-956zM504 387q0 40 28.5 68t69.5 28q38 0 66 -29t28 -67q0 -40 -28 -68t-68 -28t-68 28t-28 68z" />
<glyph unicode="&#xf8;" horiz-adv-x="1062" d="M37 -55l145 200q-54 82 -78 167.5t-24 197.5q0 233 127.5 379.5t331.5 146.5q142 0 254 -80l90 119h141l-150 -198q111 -152 111 -371q0 -238 -130 -385.5t-339 -147.5q-78 0 -137.5 20t-118.5 66l-88 -114h-135zM289 276l405 570q-76 61 -164 61q-59 0 -114.5 -28.5 t-89.5 -75.5q-74 -106 -74 -293q0 -133 37 -234zM358 174q75 -72 172 -72q129 0 206 107t77 287q0 165 -45 258z" />
<glyph unicode="&#xf9;" horiz-adv-x="1107" d="M618 1167l-415 189l61 121l395 -230zM158 365v645h157v-645q0 -132 52 -193q58 -70 147 -70q117 0 199 99t82 239v570h157v-1010h-141v193q-111 -220 -322 -220q-154 0 -242.5 105t-88.5 287z" />
<glyph unicode="&#xfa;" horiz-adv-x="1107" d="M485 1167l-43 80l396 230l61 -121zM158 365v645h157v-645q0 -132 52 -193q58 -70 147 -70q117 0 199 99t82 239v570h157v-1010h-141v193q-111 -220 -322 -220q-154 0 -242.5 105t-88.5 287z" />
<glyph unicode="&#xfb;" horiz-adv-x="1107" d="M229 1194l334 260l330 -260l-141 -20l-191 135l-184 -135zM158 365v645h157v-645q0 -132 52 -193q58 -70 147 -70q117 0 199 99t82 239v570h157v-1010h-141v193q-111 -220 -322 -220q-154 0 -242.5 105t-88.5 287z" />
<glyph unicode="&#xfc;" horiz-adv-x="1107" d="M725 1202q-41 0 -71.5 31t-30.5 74t30.5 72.5t73.5 29.5q41 0 71.5 -30.5t30.5 -71.5q0 -43 -30.5 -74t-73.5 -31zM408 1202q-42 0 -72.5 30.5t-30.5 72.5q0 43 30 72.5t73 29.5q41 0 71.5 -30.5t30.5 -71.5t-30.5 -72t-71.5 -31zM158 365v645h157v-645q0 -132 52 -193 q58 -70 147 -70q117 0 199 99t82 239v570h157v-1010h-141v193q-111 -220 -322 -220q-154 0 -242.5 105t-88.5 287z" />
<glyph unicode="&#xfd;" horiz-adv-x="849" d="M387 1167l-43 80l395 230l62 -121zM29 -219q71 -14 104 -14q107 0 160 86q30 49 67 165l-350 992h160l270 -760l277 760h133l-406 -1129q-52 -141 -139 -203q-52 -38 -158 -38q-47 0 -118 16v125z" />
<glyph unicode="&#xfe;" horiz-adv-x="1093" d="M315 154v-496h-157v1708h157v-532q59 104 133 153t175 49q175 0 285 -147.5t110 -382.5q0 -238 -112 -385.5t-292 -147.5q-98 0 -166 41.5t-133 139.5zM315 367q19 -114 95.5 -189.5t173.5 -75.5q50 0 101.5 26.5t84.5 68.5q76 101 76 299q0 190 -69.5 296.5 t-192.5 106.5q-94 0 -166 -66.5t-103 -183.5v-282z" />
<glyph unicode="&#xff;" horiz-adv-x="849" d="M606 1202q-41 0 -71.5 31t-30.5 74t30.5 72.5t73.5 29.5q41 0 72 -30.5t31 -71.5q0 -43 -31 -74t-74 -31zM289 1202q-42 0 -72.5 30.5t-30.5 72.5q0 43 30 72.5t73 29.5q41 0 71.5 -30.5t30.5 -71.5t-30.5 -72t-71.5 -31zM29 -219q71 -14 104 -14q107 0 160 86 q30 49 67 165l-350 992h160l270 -760l277 760h133l-406 -1129q-52 -141 -139 -203q-52 -38 -158 -38q-47 0 -118 16v125z" />
<glyph unicode="&#x152;" horiz-adv-x="1972" d="M1038 0v143q-77 -91 -161 -130.5t-203 -39.5q-170 0 -304.5 90t-210 251t-75.5 364q0 208 75.5 371t211.5 253.5t309 90.5q117 0 197.5 -37.5t160.5 -128.5v139h867v-139h-686v-447h553v-135h-553v-502h686v-143h-867zM1038 397v598q-29 119 -125 188.5t-231 69.5 q-192 0 -306 -155t-114 -416q0 -258 113 -413.5t301 -155.5q176 0 282 118q27 30 44 65.5t36 100.5z" />
<glyph unicode="&#x153;" horiz-adv-x="1746" d="M1511 303l142 -27q-23 -63 -45 -101t-56 -73q-60 -62 -142 -95.5t-171 -33.5q-106 0 -189.5 41.5t-158.5 132.5q-79 -92 -164.5 -133t-194.5 -41q-203 0 -328.5 146.5t-125.5 384.5q0 233 130.5 382.5t334.5 149.5q103 0 186.5 -41.5t161.5 -130.5q84 93 164.5 132.5 t185.5 39.5q120 0 215 -59.5t150 -169.5q55 -112 63 -313h-711v-23q0 -129 46 -217q32 -64 101 -104.5t146 -40.5q91 0 153.5 46.5t106.5 147.5zM963 610h538q-6 140 -76 221.5t-184 81.5q-72 0 -132 -34.5t-97 -96.5q-39 -65 -49 -172zM332 195q84 -97 205 -97 q67 0 125.5 32t95.5 89q28 43 45.5 121t17.5 160q0 196 -71.5 299.5t-208.5 103.5q-140 0 -213.5 -104.5t-73.5 -304.5q0 -209 78 -299z" />
<glyph unicode="&#x178;" horiz-adv-x="1044" d="M705 1522q-41 0 -72 31t-31 73q0 43 31 73t74 30q41 0 71.5 -31t30.5 -72q0 -43 -30.5 -73.5t-73.5 -30.5zM387 1522q-42 0 -72 30t-30 72q0 43 29.5 72.5t72.5 29.5q41 0 71.5 -30.5t30.5 -71.5t-30.5 -71.5t-71.5 -30.5zM436 0v575l-456 791h200l363 -629l364 629h156 l-457 -791v-575h-170z" />
<glyph unicode="&#x2c6;" horiz-adv-x="1024" d="M180 1194l334 260l330 -260l-142 -20l-190 135l-184 -135z" />
<glyph unicode="&#x2dc;" horiz-adv-x="1024" d="M254 1214l-84 60q89 127 223 127q35 0 57 -6.5t117 -46.5q46 -19 86 -19q61 0 125 51l76 -71q-64 -58 -107.5 -79.5t-97.5 -21.5q-33 0 -53.5 7t-116.5 49q-43 18 -92 18q-41 0 -70.5 -15.5t-62.5 -52.5z" />
<glyph unicode="&#x2000;" horiz-adv-x="908" />
<glyph unicode="&#x2001;" horiz-adv-x="1817" />
<glyph unicode="&#x2002;" horiz-adv-x="908" />
<glyph unicode="&#x2003;" horiz-adv-x="1817" />
<glyph unicode="&#x2004;" horiz-adv-x="605" />
<glyph unicode="&#x2005;" horiz-adv-x="454" />
<glyph unicode="&#x2006;" horiz-adv-x="302" />
<glyph unicode="&#x2007;" horiz-adv-x="302" />
<glyph unicode="&#x2008;" horiz-adv-x="227" />
<glyph unicode="&#x2009;" horiz-adv-x="363" />
<glyph unicode="&#x200a;" horiz-adv-x="100" />
<glyph unicode="&#x2010;" horiz-adv-x="512" d="M31 451v122h452v-122h-452z" />
<glyph unicode="&#x2011;" horiz-adv-x="512" d="M31 451v122h452v-122h-452z" />
<glyph unicode="&#x2012;" horiz-adv-x="512" d="M31 451v122h452v-122h-452z" />
<glyph unicode="&#x2013;" d="M201 451v122h796v-122h-796z" />
<glyph unicode="&#x2014;" horiz-adv-x="1366" d="M4 451v122h1358v-122h-1358z" />
<glyph unicode="&#x2018;" horiz-adv-x="512" d="M154 924v202l135 240h69l-98 -240h98v-202h-204z" />
<glyph unicode="&#x2019;" horiz-adv-x="512" d="M154 924l98 239h-98v203h204v-203l-135 -239h-69z" />
<glyph unicode="&#x201a;" horiz-adv-x="512" d="M154 0v203h204v-203l-135 -240h-69l98 240h-98z" />
<glyph unicode="&#x201c;" horiz-adv-x="821" d="M453 928v170l161 268h74l-117 -242h82v-196h-200zM154 928v170l155 268h72l-113 -242h82v-196h-196z" />
<glyph unicode="&#x201d;" horiz-adv-x="821" d="M451 928l112 241h-82v197h197v-170l-156 -268h-71zM143 928l117 241h-82v197h201v-170l-162 -268h-74z" />
<glyph unicode="&#x201e;" horiz-adv-x="821" d="M481 0v197h197v-170l-156 -267h-71l112 240h-82zM178 0v197h201v-170l-162 -267h-74l117 240h-82z" />
<glyph unicode="&#x2022;" horiz-adv-x="1366" d="M686 410q-118 0 -201.5 82.5t-83.5 199.5q0 120 83.5 202.5t203.5 82.5q115 0 198 -84t83 -201t-83 -199.5t-200 -82.5z" />
<glyph unicode="&#x2026;" horiz-adv-x="1525" d="M1159 0v223h223v-223h-223zM653 0v223h221v-223h-221zM143 0v223h224v-223h-224z" />
<glyph unicode="&#x202f;" horiz-adv-x="363" />
<glyph unicode="&#x2039;" horiz-adv-x="438" d="M254 240l-172 292l172 283h90l-106 -283l106 -292h-90z" />
<glyph unicode="&#x203a;" horiz-adv-x="438" d="M96 240l107 282l-107 293h90l172 -293l-172 -282h-90z" />
<glyph unicode="&#x205f;" horiz-adv-x="454" />
<glyph unicode="&#x20ac;" horiz-adv-x="1214" d="M84 520l37 119h86v45v29h-123l37 118h96q44 266 189 414t362 148q213 0 362 -146l-57 -188q-107 194 -307 194q-146 0 -240.5 -108t-128.5 -314h600l-36 -116l-574 -2q-2 -27 -2 -37q0 -12 2 -37h547l-37 -119h-500q32 -192 130 -299.5t241 -107.5q197 0 305 206v-245 q-122 -101 -309 -101q-217 0 -359.5 143.5t-185.5 403.5h-135z" />
<glyph unicode="&#x2122;" horiz-adv-x="1591" d="M688 588v778h172l238 -590l233 590h170v-778h-121v618l-247 -618h-86l-250 618v-618h-109zM236 588v680h-234v98h594v-98h-236v-680h-124z" />
<glyph unicode="&#x25fc;" horiz-adv-x="1013" d="M0 1014h1014v-1014h-1014v1014z" />
</font>
</defs>
</svg>
